<?xml version="1.0" standalone="no"?>
<!DOCTYPE svg PUBLIC "-//W3C//DTD SVG 1.1//EN" "http://www.w3.org/Graphics/SVG/1.1/DTD/svg11.dtd" >
<svg xmlns="http://www.w3.org/2000/svg" xmlns:xlink="http://www.w3.org/1999/xlink" version="1.1">
<metadata></metadata>
<defs>
<font id="thaisans_neueextra_light" horiz-adv-x="0" >
<font-face units-per-em="2048" ascent="1528" descent="-520" />
<missing-glyph horiz-adv-x="659" />
<glyph unicode="&#x3b;&#x3b;arm&#x3b;&#x3b;" horiz-adv-x="2099" d="M76 1270v82h327v164q-23 0 -45 13t-39.5 35.5t-27.5 52.5t-10 62q0 37 14 67t36.5 51.5t52.5 33.5t60 12q78 0 121 -43t43 -121q0 -27 -8 -55.5t-23.5 -52t-38 -38.5t-53.5 -17v-164h328v-82h-328v-246l220 -492h-82l-179 410l-178 -410h-82l219 492v246h-327zM158 0 q0 23 8 48.5t25.5 47t44 34.5t65.5 13q61 0 102 -41t41 -102q0 -14 -7 -51t-48 -66l45 -209l113 226h41l112 -226l72 428h102l-32 -172l22 41l133 31q0 106 12.5 181t37 120t63.5 65.5t92 20.5q61 0 92 -41t31 -102h-41q0 31 -15.5 56.5t-45.5 25.5q-78 0 -111 -76t-33 -229 l150 36l18 -75l-168 -43v-82q0 -123 -6 -224.5t-29.5 -175t-68.5 -113.5t-121 -40q-61 0 -102 30.5t-41 92.5h41q0 -31 25.5 -46.5t56.5 -15.5q61 0 94 37t48 101.5t18 154.5t3 199v61l-163 -41l-70 -368h-53l-144 307l-143 -307h-53l-66 327l37 25q-4 -2 -12 -2 q-8 -2 -29 -2q-18 0 -44 7t-47.5 23.5t-36.5 43t-15 67.5zM240 0q0 -23 15 -41t46 -18q61 0 61 59q0 61 -61 61q-31 0 -46 -18t-15 -43zM362 1679q0 -31 17.5 -56.5t64.5 -25.5t64.5 26t17.5 56q0 47 -25.5 64.5t-56.5 17.5t-56.5 -17.5t-25.5 -64.5zM834 532l466 1270h353 l409 -1270h-327l-125 390h-551l-144 -390h-81zM1100 1024h475l-223 696zM1364 41l41 205h61l-61 -205h-41zM1421 1741l27 -80l47 80h-74zM1462 1624l17 -57l106 174h-51zM1466 41l41 205h62l-62 -205h-41zM1493 1528l23 -74l114 193l-22 69zM1536 1393l12 -41l115 190 l-12 41zM1565 1303l12 -41l115 190l-13 41zM1591 -203q0 76 18.5 146.5t51.5 124t78 86t98 32.5q109 0 167 -74.5t58 -211.5q0 -201 -71.5 -295t-194.5 -94q-39 0 -76 16t-65.5 50t-46 88t-17.5 132zM1595 1208l13 -41l114 189l-14 43zM1622 1126l14 -49l115 191l-14 49z M1651 1032l14 -41l113 191l-11 41zM1673 -162l287 123q-4 39 -16 70q-12 27 -36 49t-71 22q-53 0 -86 -42t-49 -91q-20 -57 -29 -131zM1673 -264q0 -23 7.5 -48.5t22.5 -47t38.5 -35t54.5 -13.5q61 0 94 41t49 93q18 57 21 133zM1679 940l13 -33l114 187l-10 39zM1706 860 l12 -33l115 189l-12 35zM1733 778l12 -39l117 187l-13 43zM1759 696l15 -47l114 193l-14 45zM1786 614l6 -20h27l96 162l-14 49zM1851 594h41l50 84l-15 41zM1925 594h41l-14 45z" />
<glyph unicode="&#xd;" horiz-adv-x="659" />
<glyph unicode=" "  horiz-adv-x="659" />
<glyph unicode="&#x09;" horiz-adv-x="659" />
<glyph unicode="&#xa0;" horiz-adv-x="659" />
<glyph unicode="!" horiz-adv-x="235" d="M76 0v86h84v-86h-84zM76 219v815h84v-815h-84z" />
<glyph unicode="&#x22;" horiz-adv-x="460" d="M76 737v297h88v-297h-88zM270 737v297h88v-297h-88z" />
<glyph unicode="#" horiz-adv-x="1079" d="M76 303l16 64h156l65 254h-155l16 63h158l78 289h79l-79 -289h327l78 289h80l-78 -289h176l-16 -63h-176l-68 -254h174l-16 -64h-174l-80 -303h-80l80 303h-326l-80 -303h-79l79 303h-155zM328 367h325l66 254h-324z" />
<glyph unicode="$" horiz-adv-x="768" d="M76 53v72q39 -23 84 -39q39 -16 90 -27.5t110 -11.5q113 0 180.5 56.5t67.5 168.5q0 76 -40 119t-98 69.5t-128 46t-128 49.5t-98 77t-40 131q0 53 24.5 94t63.5 69.5t88 44t100 17.5v156h80v-156q57 -4 97 -10t69 -16q31 -10 53 -23v-72q-29 16 -65 29q-35 10 -84 20.5 t-121 10.5q-41 0 -80 -12.5t-70.5 -34t-51 -52t-19.5 -67.5q0 -63 40 -99t98 -60.5t128 -46t128 -54.5t98 -86.5t40 -143.5q0 -53 -11 -101t-41 -87t-80 -64.5t-128 -33.5v-156h-78v150q-74 4 -126 16t-87 24q-39 14 -65 33z" />
<glyph unicode="%" horiz-adv-x="1134" d="M76 840q0 145 52 212.5t130 67.5q72 0 121 -63.5t49 -208.5q0 -137 -55 -202.5t-125 -65.5q-72 0 -122 62.5t-50 197.5zM156 844q0 -61 7 -101.5t20.5 -62t31.5 -29.5t39 -8q18 0 35.5 8t32 32t22.5 63t8 100q0 63 -8 105t-22.5 64.5t-32 32t-35.5 9.5t-36.5 -9.5 t-32 -33t-21.5 -64.5t-8 -106zM229 0l666 1202h86l-668 -1202h-84zM707 233q0 145 53 211t127 66q72 0 122 -63.5t50 -204.5t-53 -205t-129 -64q-70 0 -120 62.5t-50 197.5zM788 236q0 -70 8.5 -110t21.5 -60.5t30.5 -25.5t36.5 -5q18 0 36.5 6t32 27.5t21.5 61.5t8 108 q0 70 -8 110.5t-21.5 62t-32 28.5t-36.5 7t-36 -7t-31 -29.5t-21.5 -63.5t-8.5 -110z" />
<glyph unicode="&#x26;" horiz-adv-x="1095" d="M76 246q0 113 54 190.5t173 130.5q-20 14 -42.5 35t-41 47.5t-30 59t-11.5 71.5q0 55 20.5 95t55.5 67t82 39t100 12q43 0 86 -12t76 -36.5t53.5 -60.5t20.5 -83q0 -94 -54.5 -150.5t-164.5 -95.5q57 -27 105 -64.5t87 -79.5t68.5 -85t52.5 -80q35 47 64.5 103.5 t50 113.5t31 109.5t6.5 91.5l-3 20h84q-6 -121 -58 -250t-134 -244q43 -53 89 -88.5t124 -35.5v-66q-53 0 -91 10t-69 28.5t-54.5 42t-47.5 50.5q-66 -72 -159 -110.5t-206 -38.5q-160 0 -238.5 63.5t-78.5 200.5zM160 246q0 -106 59 -153.5t174 -47.5q90 0 177 36t145 101 q-31 43 -62.5 91.5t-71.5 94.5t-90.5 83.5t-115.5 60.5q-59 -23 -100.5 -45.5t-67 -52t-36.5 -69.5t-11 -99zM262 780q0 -53 30 -106t99 -90q102 35 149.5 90t47.5 133q0 31 -16.5 52.5t-41 35.5t-50 21.5t-44.5 7.5q-84 0 -129 -41t-45 -103z" />
<glyph unicode="'" horiz-adv-x="235" d="M76 737v297h84v-297h-84z" />
<glyph unicode="(" horiz-adv-x="378" d="M45 369q0 197 57.5 363.5t178.5 309.5h63q-121 -147 -172 -312t-51 -363q0 -186 51 -348t172 -306h-63q-115 125 -175.5 292t-60.5 364z" />
<glyph unicode=")" horiz-adv-x="378" d="M12 1042h66q121 -143 178 -310t57 -363q0 -193 -56 -357t-177 -299h-66q121 143 171.5 304t50.5 352q0 188 -51.5 357t-172.5 316z" />
<glyph unicode="*" horiz-adv-x="552" d="M76 774l166 86l-166 86l67 92l117 -110l-22 162h114l-24 -164l121 112l67 -92l-168 -86l168 -86l-67 -92l-121 113l24 -164h-114l22 162l-117 -111z" />
<glyph unicode="+" horiz-adv-x="727" d="M76 371v67h256v273h63v-273h256v-67h-256v-248h-63v248h-256z" />
<glyph unicode="," horiz-adv-x="235" d="M-18 -223q25 41 47 80q16 33 31.5 68.5t15.5 62.5v104h84v-104q0 -37 -20.5 -75t-45.5 -69q-29 -37 -65 -67h-47z" />
<glyph unicode="-" horiz-adv-x="512" d="M76 389v72h360v-72h-360z" />
<glyph unicode="." horiz-adv-x="235" d="M76 0v92h84v-92h-84z" />
<glyph unicode="/" horiz-adv-x="434" d="M14 0l320 1202h76l-320 -1202h-76z" />
<glyph unicode="0" horiz-adv-x="808" d="M45 467q0 133 27.5 232.5t76 165t114 97t143.5 31.5q74 0 139 -29.5t113.5 -91t77 -157t28.5 -226.5q0 -129 -32 -224t-84 -158.5t-120.5 -94t-140.5 -30.5q-74 0 -136.5 28.5t-108.5 89t-71.5 151.5t-25.5 216zM129 473q0 -211 75 -319.5t193 -108.5q125 0 204 111.5 t79 322.5q0 109 -21.5 193t-59.5 140t-89 86t-113 30q-119 0 -193.5 -116t-74.5 -339z" />
<glyph unicode="1" horiz-adv-x="430" d="M45 748v65q43 18 83 45t69 53q35 29 65 62h92v-973h-84v858q-35 -23 -97 -59.5t-128 -50.5z" />
<glyph unicode="2" horiz-adv-x="655" d="M45 0v72q0 59 35 113.5t87 106.5t113.5 104.5t113.5 105.5t87 109.5t35 119.5q0 102 -51 149.5t-139 47.5q-66 0 -132.5 -17.5t-107.5 -64.5v69q43 45 103.5 61.5t136.5 16.5q57 0 107 -15t87 -46t58.5 -78t21.5 -111q0 -72 -36 -137t-89 -123.5t-115.5 -113 t-114.5 -105.5t-88 -100t-34 -98h518v-66h-596z" />
<glyph unicode="3" horiz-adv-x="675" d="M76 35v71q49 -41 100 -51t119 -10q117 0 184.5 53.5t67.5 151.5q0 53 -19.5 94t-62.5 68.5t-113.5 42t-173.5 14.5v59q92 8 164 31q61 20 112.5 61.5t51.5 116.5q0 98 -47 144.5t-129 46.5q-41 0 -103.5 -11.5t-109.5 -46.5v70q47 31 95 42t118 11q59 0 107 -18.5t82 -49 t52.5 -71.5t18.5 -84q0 -94 -40 -160.5t-140 -105.5q96 -14 158.5 -83t62.5 -161q0 -70 -26.5 -122t-73 -87t-106.5 -52t-130 -17q-72 0 -124 14t-95 39z" />
<glyph unicode="4" horiz-adv-x="698" d="M14 246v80l451 647h94v-660h125v-67h-125l2 -246h-86v246h-461zM92 313h383v553z" />
<glyph unicode="5" horiz-adv-x="634" d="M76 14v64q20 -8 47 -17q23 -6 57.5 -11t79.5 -5q129 0 187.5 64.5t58.5 166.5q0 117 -73 177.5t-179 60.5q-47 0 -81 -2t-56 -4q-25 -4 -41 -6v471h444v-66h-360v-336h82q92 0 157.5 -22.5t107.5 -62.5t62.5 -92t20.5 -109q0 -154 -93.5 -228.5t-236.5 -74.5 q-72 0 -111.5 9t-72.5 23z" />
<glyph unicode="6" horiz-adv-x="704" d="M45 432q0 272 102.5 416.5t294.5 144.5q47 0 84 1t74 -15v-66q-16 2 -39 7q-20 4 -49 5t-70 3q-150 2 -236.5 -117t-80.5 -340q16 39 46 64.5t63.5 39t67.5 18.5t58 5q63 0 119 -22.5t95.5 -62.5t62 -95.5t22.5 -122.5q0 -68 -22.5 -125t-62 -99t-96 -65.5t-124.5 -23.5 q-147 0 -228 119.5t-81 330.5zM137 322q0 -57 12.5 -107.5t38 -88.5t66.5 -59.5t100 -21.5q47 0 88 21.5t71 56.5t46 80t16 92q0 109 -54 173t-167 64q-55 0 -96 -23.5t-67.5 -56t-40 -68t-13.5 -62.5z" />
<glyph unicode="7" horiz-adv-x="645" d="M14 907v66h617v-62l-350 -911h-84l338 907h-521z" />
<glyph unicode="8" horiz-adv-x="686" d="M45 252q0 86 48 161.5t143 114.5q-66 27 -108 86.5t-42 137.5q0 111 71.5 176t186.5 65q53 0 99 -18.5t81 -51t55.5 -76.5t20.5 -95q0 -72 -38 -134.5t-107 -89.5q98 -41 142 -116.5t44 -159.5q0 -70 -23.5 -120t-64.5 -84t-95.5 -50t-117.5 -16q-133 0 -214 65.5 t-81 204.5zM129 270q0 -92 51 -158.5t164 -66.5q109 0 161 67.5t52 159.5q0 39 -13.5 77t-40 69t-66.5 50t-93 19q-100 0 -157.5 -62.5t-57.5 -154.5zM170 739q0 -33 10 -64.5t31.5 -57t54.5 -41t78 -15.5q39 0 72 15.5t55.5 41t34.5 57.5t12 64q0 45 -15.5 80t-40 59.5 t-55 37t-63.5 12.5q-82 0 -128 -48.5t-46 -140.5z" />
<glyph unicode="9" horiz-adv-x="704" d="M45 678q0 66 21.5 123t61.5 100t96.5 67.5t127.5 24.5q137 0 223.5 -114.5t86.5 -331.5q0 -281 -95.5 -423t-294.5 -142q-47 0 -89 -1t-79 15v63q20 -4 46 -8q43 -6 124 -6q84 0 145.5 36t100.5 97.5t53.5 144.5t6.5 179q-16 -41 -46 -65.5t-64 -38t-66.5 -18.5t-57.5 -5 q-61 0 -116.5 20.5t-96.5 60.5t-64.5 95t-23.5 127zM127 678q0 -127 64.5 -183.5t160.5 -56.5q53 0 93 21.5t68 54.5t41 70.5t13 70.5q0 139 -60.5 206t-154.5 67q-41 0 -81 -18.5t-72.5 -51.5t-52 -79t-19.5 -101z" />
<glyph unicode=":" horiz-adv-x="235" d="M76 0v88h84v-88h-84zM76 600v86h84v-86h-84z" />
<glyph unicode=";" horiz-adv-x="235" d="M-18 -223q25 37 47 73q16 33 31.5 69t15.5 69v100h84v-100q0 -41 -20.5 -80t-45.5 -68q-29 -35 -65 -63h-47zM74 600v86h86v-86h-86z" />
<glyph unicode="&#x3c;" horiz-adv-x="700" d="M45 307v31l641 364v-73l-536 -307l536 -265v-73z" />
<glyph unicode="=" horiz-adv-x="727" d="M76 260v68h575v-68h-575zM76 461v69h575v-69h-575z" />
<glyph unicode="&#x3e;" horiz-adv-x="700" d="M14 -16v73l539 265l-539 307v73l641 -364v-31z" />
<glyph unicode="?" horiz-adv-x="604" d="M76 854v70q18 18 47 34q25 12 63.5 23.5t98.5 11.5q45 0 89 -11t77.5 -36.5t55 -65.5t21.5 -96q0 -80 -38.5 -129t-85 -83.5t-84 -64.5t-37.5 -75v-213h-84v209q0 59 37.5 96t84 71t85 73t38.5 104q0 84 -47 120t-104 36q-55 0 -95 -11.5t-69 -25.5q-33 -16 -53 -37z M199 0v86h84v-86h-84z" />
<glyph unicode="@" horiz-adv-x="1300" d="M127 369q0 111 43 209t119 172.5t180 119.5t227 50q104 2 198.5 -30t166.5 -93.5t114 -146.5t42 -189q0 -68 -16.5 -130.5t-49.5 -111.5t-79 -79.5t-105 -33.5q-66 -4 -107 35t-45 127q-29 -53 -54.5 -84.5t-52 -49t-55 -24t-65.5 -6.5q-35 0 -73 14.5t-69.5 46.5t-52 81 t-20.5 116q0 59 25.5 114.5t67.5 98.5t95 69t109 26q43 0 73.5 -9.5t52 -23.5t35 -28.5t19.5 -24.5l16 82h76l-61 -304q-6 -53 0 -94q4 -35 22.5 -64.5t59.5 -29.5q45 0 77.5 26.5t54 67.5t33 90.5t11.5 96.5q0 70 -28 141.5t-83 129.5t-138 94t-194 34q-119 -4 -212 -48 t-157.5 -113.5t-99 -155.5t-34.5 -172q0 -82 29.5 -164t90 -148.5t149.5 -107.5t208 -41q78 0 149.5 14t132.5 39l2 -53q-49 -18 -118.5 -37t-155.5 -19q-123 0 -224.5 40t-174 110t-113.5 165t-41 206zM451 362q0 -49 13 -85.5t33.5 -61.5t47 -36t51.5 -11q39 0 74 16.5 t64.5 54t52 103.5t38.5 164q-2 10 -11 26.5t-27.5 32t-47 25.5t-69.5 10q-33 0 -72 -15.5t-71.5 -46t-54 -74.5t-21.5 -102z" />
<glyph unicode="A" horiz-adv-x="849" d="M14 0l355 973h98l354 -973h-84l-98 268h-446l-101 -268h-78zM213 334h405l-200 565z" />
<glyph unicode="B" horiz-adv-x="747" d="M76 0v973h268q129 0 197.5 -61.5t68.5 -157.5q0 -33 -8 -69t-26.5 -69.5t-47 -60.5t-69.5 -41q100 -23 156.5 -90.5t56.5 -151.5q0 -55 -21.5 -105t-63.5 -87t-101.5 -58.5t-133.5 -21.5h-276zM160 66h180q111 0 179.5 59t68.5 147q0 102 -76 156.5t-199 54.5h-153v-417z M160 551h145q98 0 159.5 45t61.5 137q0 37 -10 69t-34.5 55.5t-65.5 36.5t-103 13h-153v-356z" />
<glyph unicode="C" horiz-adv-x="798" d="M45 477q0 119 35 215t98.5 163t153.5 102.5t203 35.5q59 0 127.5 -5t117.5 -27l-28 -70q-59 27 -106.5 32t-110.5 5q-82 0 -156 -25.5t-129 -80t-88 -140.5t-33 -205q0 -102 28.5 -182t82 -135.5t128 -85t167.5 -29.5q39 0 66.5 3t52 9t48 16.5t52.5 26.5l26 -69 q-59 -35 -122.5 -42t-137.5 -7q-109 0 -195.5 33.5t-149 97t-96.5 155.5t-34 209z" />
<glyph unicode="D" horiz-adv-x="901" d="M76 0v973h266q264 0 389 -121t125 -354q0 -109 -36 -201t-103.5 -157.5t-165.5 -102.5t-221 -37h-254zM160 66h170q98 0 179 27.5t139.5 82.5t91 136t32.5 186q0 211 -117.5 310t-322.5 99h-172v-841z" />
<glyph unicode="E" horiz-adv-x="645" d="M76 0v973h493v-66h-409v-389h368v-65h-368v-387h409v-66h-493z" />
<glyph unicode="F" horiz-adv-x="583" d="M76 0v973h493v-66h-409v-389h368v-65h-368v-453h-84z" />
<glyph unicode="G" horiz-adv-x="921" d="M45 467q0 119 40 216t109.5 167t164 106.5t204.5 36.5q72 0 120 -8t81 -18q37 -12 61 -27v-57q-8 6 -38.5 16t-87 19.5t-144.5 9.5q-86 0 -164 -30t-135 -88t-92 -144t-35 -199q0 -115 32 -194.5t88 -130t132 -74t164 -23.5q125 0 217 51v316h-225v65h309v-430 q-39 -23 -75 -35t-75 -19t-80 -9t-90 -2q-109 0 -197.5 32.5t-151 96t-97.5 152.5t-35 204z" />
<glyph unicode="H" horiz-adv-x="870" d="M76 0v973h84v-432h551v432h84v-973h-84v473h-551l2 -473h-86z" />
<glyph unicode="I" horiz-adv-x="235" d="M76 0v973h84v-973h-84z" />
<glyph unicode="J" horiz-adv-x="481" d="M14 -4l27 61q10 -4 25 -6q25 -6 69 -6q92 0 136 76t44 217v635h86v-635q0 -160 -64.5 -258t-195.5 -98q-76 0 -102 6q-16 4 -25 8z" />
<glyph unicode="K" horiz-adv-x="757" d="M76 0v973h84v-545l436 545h96l-258 -322l301 -651h-86l-268 582l-221 -279v-303h-84z" />
<glyph unicode="L" horiz-adv-x="583" d="M76 0v973h84v-907h409v-66h-493z" />
<glyph unicode="M" horiz-adv-x="1157" d="M76 0v973h133l360 -838l381 838h131v-973h-84v887l-409 -887h-37l-391 887v-887h-84z" />
<glyph unicode="N" horiz-adv-x="931" d="M76 0v973h125l571 -881v881h84v-973h-123l-573 868v-868h-84z" />
<glyph unicode="O" horiz-adv-x="1013" d="M45 473q0 250 125 385t348 135q100 0 183 -33.5t142.5 -98t92.5 -157t33 -208.5q0 -125 -34 -221.5t-95.5 -161t-149.5 -98t-194 -33.5q-102 0 -185.5 32.5t-142.5 96t-91 154.5t-32 208zM129 473q0 -92 24.5 -171t70.5 -136t115 -89t157 -32q94 0 166.5 33t122 91 t75 141t25.5 186q0 92 -24.5 172t-72 137t-116 90t-156.5 33q-96 0 -168 -34t-121 -93.5t-73.5 -143.5t-24.5 -184z" />
<glyph unicode="P" horiz-adv-x="696" d="M76 0v973h264q160 0 235.5 -78t75.5 -213q0 -63 -21.5 -119.5t-63.5 -99.5t-105.5 -67.5t-149.5 -24.5h-151l2 -371h-86zM160 436h151q121 0 188.5 66.5t67.5 177.5q0 117 -52 172t-175 55h-180v-471z" />
<glyph unicode="Q" horiz-adv-x="1013" d="M45 473q0 250 125 385t354 135q98 0 179 -33.5t140.5 -98t92.5 -157t33 -208.5q0 -166 -58.5 -282t-169.5 -177q51 -20 96.5 -60t45.5 -118h-78q0 29 -18.5 51t-45 40.5t-55.5 31t-47 18.5q-33 -8 -65.5 -13t-69.5 -5q-215 0 -337 128t-122 363zM129 473q0 -92 24.5 -171 t71.5 -135t116 -88t155 -32q94 0 166.5 32t122 91t75 141t25.5 185q0 92 -25.5 172t-72 137t-114 90t-149.5 33q-100 0 -174 -34t-123 -93.5t-73.5 -143.5t-24.5 -184z" />
<glyph unicode="R" horiz-adv-x="778" d="M76 0v973h293q59 0 111 -17.5t90 -50.5t59.5 -81t21.5 -109q0 -59 -18.5 -101.5t-51 -73t-76.5 -49t-93 -30.5q47 -14 75.5 -57.5t57.5 -86.5l205 -317h-95l-186 291q-18 27 -34.5 52.5t-38 46t-50.5 31.5t-70 11h-116l2 -432h-86zM160 498h170q47 0 90 13t75.5 41t52 69 t19.5 94q0 88 -62.5 140t-160.5 52h-184v-409z" />
<glyph unicode="S" horiz-adv-x="768" d="M76 51v72q41 -23 90 -39q41 -16 95 -27.5t114 -11.5q119 0 176 65.5t57 161.5q0 76 -40 118t-98 68.5t-128 47t-128 49.5t-98 77t-40 132q0 59 28.5 103t72.5 72t99.5 41t108.5 13q66 0 115 -8t84 -18q39 -12 67 -27v-68q-27 14 -63 27q-33 10 -82 19.5t-121 9.5 q-35 0 -75 -11.5t-73.5 -33t-55 -52t-21.5 -67.5q0 -63 40 -99t98 -61.5t128 -47t128 -55.5t98 -87.5t40 -141.5q0 -55 -12 -107t-48 -93t-102.5 -65.5t-173.5 -24.5q-72 0 -124 10t-87 24q-41 14 -69 35z" />
<glyph unicode="T" horiz-adv-x="675" d="M14 907v66h648v-66h-277v-907h-84v907h-287z" />
<glyph unicode="U" horiz-adv-x="870" d="M76 367v606h84v-598q0 -78 13 -138.5t44 -103.5t82 -65.5t127 -22.5q152 0 218.5 83t66.5 234v611h84v-592q0 -203 -88.5 -301t-280.5 -98q-184 0 -267 94t-83 291z" />
<glyph unicode="V" horiz-adv-x="849" d="M14 973h84l320 -889l319 889h84l-354 -973h-98z" />
<glyph unicode="W" horiz-adv-x="1280" d="M14 973h84l248 -901l272 901h54l227 -903l272 903h82l-295 -973h-114l-201 831l-237 -831h-115z" />
<glyph unicode="X" horiz-adv-x="788" d="M14 0l316 487l-297 486h100l246 -420l266 420h98l-315 -486l315 -487h-98l-266 418l-266 -418h-99z" />
<glyph unicode="Y" horiz-adv-x="747" d="M14 973h82l256 -541l279 541h82l-318 -619v-354h-84v346z" />
<glyph unicode="Z" horiz-adv-x="747" d="M14 0v6l590 901h-549v66h678v-6l-588 -901h566q0 -16 1 -33t1 -33h-699z" />
<glyph unicode="[" horiz-adv-x="362" d="M76 -287v1331h272v-63h-201v-1204h201v-64h-272z" />
<glyph unicode="\" horiz-adv-x="434" d="M14 1202h76l320 -1202h-76z" />
<glyph unicode="]" horiz-adv-x="362" d="M14 -223h201v1204h-201v63h273v-1331h-273v64z" />
<glyph unicode="^" horiz-adv-x="886" d="M76 395l321 649h31l358 -649h-69l-305 543l-265 -543h-71z" />
<glyph unicode="_" horiz-adv-x="727" d="M76 -29h575v-71h-575v71z" />
<glyph unicode="`" horiz-adv-x="395" d="M76 1098h74l133 -197h-58z" />
<glyph unicode="a" horiz-adv-x="686" d="M74 178q2 68 29.5 109t67.5 63.5t85 29.5t84 7q53 0 91 5t61 14q27 8 43 20q0 117 -54.5 172t-154.5 55q-63 0 -105.5 -19.5t-68.5 -41.5q-31 -27 -48 -60l-28 68q16 33 51 57q29 23 77 41.5t120 18.5q47 0 97 -12.5t92 -41t69.5 -80t27.5 -126.5v-457h-75v80 q-29 -33 -85.5 -66.5t-134.5 -33.5q-109 0 -177 46q-64 43 -64 140v12zM150 178q0 -80 52 -110.5t122 -30.5q35 0 67.5 11t60 28.5t49 38t34.5 37.5v204q-29 -10 -60 -18q-27 -8 -58.5 -13.5t-62.5 -5.5q-37 0 -73.5 -8t-66.5 -25.5t-47 -44t-17 -63.5z" />
<glyph unicode="b" horiz-adv-x="788" d="M76 0v1034h74v-413q31 25 69 47q35 16 83 31.5t110 15.5q53 0 111.5 -20.5t107.5 -63.5t80.5 -108.5t31.5 -157.5q0 -98 -28.5 -169t-74.5 -116t-104.5 -66.5t-119.5 -21.5t-110.5 14t-84.5 33q-41 23 -71 49v-88h-74zM150 150q35 -31 75 -54q35 -20 85 -35.5t110 -15.5 q39 0 83 17.5t81 55.5t61.5 99.5t24.5 149.5q0 70 -24.5 124t-61.5 92t-81 57t-83 19q-59 0 -109.5 -16t-85.5 -37q-41 -23 -75 -51v-405z" />
<glyph unicode="c" horiz-adv-x="583" d="M45 334q0 86 25.5 156.5t72.5 121t114 78t149 27.5q35 0 63.5 -6t50.5 -15q25 -8 45 -20l-24 -55q-14 12 -35 20q-16 8 -42 14.5t-58 6.5q-53 0 -104.5 -20.5t-91.5 -60.5t-65.5 -102.5t-25.5 -144.5q0 -80 24.5 -135.5t65.5 -89t91 -48t103 -14.5q33 0 57.5 5t43.5 14 q20 8 37 20l24 -55q-18 -12 -43 -21q-23 -8 -55.5 -13t-75.5 -5q-160 0 -253 91t-93 251z" />
<glyph unicode="d" horiz-adv-x="788" d="M45 365q0 94 34 161.5t85 109.5t111.5 61.5t113.5 19.5q61 0 107.5 -15.5t78.5 -33.5q37 -23 64 -47v413h74v-1034h-74v88q-29 -27 -66 -49q-33 -18 -78.5 -32.5t-107.5 -14.5q-61 0 -122.5 19.5t-110 62.5t-79 114.5t-30.5 176.5zM119 367q0 -94 26.5 -155.5t65.5 -98.5 t84 -52.5t84 -15.5q53 0 101 15.5t83 35.5q41 23 76 54v405q-35 29 -76 51q-35 20 -83 36.5t-101 16.5q-39 0 -84 -18t-84 -55t-65.5 -91.5t-26.5 -127.5z" />
<glyph unicode="e" horiz-adv-x="684" d="M45 342q0 84 24.5 152.5t65.5 118t97.5 77t121.5 27.5q63 0 118.5 -21.5t94.5 -64.5t59 -107q17 -53 18 -120q0 -13 -1 -27l-2 -37h-522q0 -80 20.5 -135t55 -90t79.5 -51.5t97 -16.5q55 0 90 10.5t57 22.5q25 14 39 35l29 -66q-23 -16 -54 -29q-27 -10 -65.5 -19 t-87.5 -9q-74 0 -134.5 19.5t-105.5 60.5t-69.5 107.5t-24.5 162.5zM115 397h448q-4 129 -60.5 197t-148.5 68t-156.5 -70t-82.5 -195z" />
<glyph unicode="f" horiz-adv-x="440" d="M14 629v55h133v129q0 121 45.5 181.5t131.5 60.5q35 0 56 -1t32 -1h14v-52q0 -2 -8 -2q-8 -2 -58 -2q-84 0 -110.5 -48t-26.5 -136v-129h203v-55h-205l2 -629h-76v629h-133z" />
<glyph unicode="g" horiz-adv-x="788" d="M45 342q0 104 29.5 176t77 116t107.5 63.5t122 19.5q61 0 108.5 -15.5t81.5 -33.5q37 -23 68 -47v86h74v-699q0 -195 -86 -279.5t-277 -84.5q-61 0 -104 9t-72 19q-33 12 -53 29l26 63q20 -18 50 -32q25 -12 62.5 -22.5t90.5 -10.5q158 0 223.5 73.5t65.5 217.5v98 q-31 -27 -70 -47q-35 -18 -82 -32.5t-108 -14.5q-49 0 -107.5 18.5t-108.5 60.5t-84 107.5t-34 161.5zM119 342q0 -78 26.5 -133t66.5 -91t85 -53.5t84 -17.5q53 0 100 15.5t82 35.5q41 23 76 54v405q-35 29 -76 51q-35 20 -82 37t-100 17q-39 0 -84 -14.5t-85 -51.5 t-66.5 -98.5t-26.5 -155.5z" />
<glyph unicode="h" horiz-adv-x="727" d="M76 0v1034h74v-434q18 33 51 57q29 23 72.5 41.5t109.5 18.5q74 0 125 -19.5t83 -53.5t46 -80t14 -101v-463h-73v469q0 43 -16.5 77t-44.5 56.5t-63.5 34.5t-74.5 12q-59 0 -102.5 -19.5t-71.5 -41.5q-33 -27 -55 -60v-528h-74z" />
<glyph unicode="i" horiz-adv-x="225" d="M76 0v707h74v-707h-74zM76 823v74h74v-74h-74z" />
<glyph unicode="j" horiz-adv-x="225" d="M-207 -340l29 64q10 -8 22 -15q10 -4 22.5 -8t27.5 -4q94 0 138 75.5t44 202.5v732h74v-707q0 -178 -69 -267t-185 -89q-29 0 -48.5 2t-31.5 6q-14 4 -23 8zM76 825v72h74v-72h-74z" />
<glyph unicode="k" horiz-adv-x="634" d="M76 0v1034h74v-772l329 416h84l-168 -213l217 -465h-73l-189 408l-200 -252v-156h-74z" />
<glyph unicode="l" horiz-adv-x="225" d="M76 0v1034h74v-1034h-74z" />
<glyph unicode="m" horiz-adv-x="1228" d="M76 0v707h74v-107q0 2 14 20.5t41.5 40t70.5 39t103 17.5q104 0 162.5 -31t87.5 -94q8 12 28.5 32.5t53 41t76.5 36t98 15.5q74 0 125 -18.5t82.5 -52.5t46 -80t14.5 -103v-463h-74v469q0 45 -17.5 79t-45 56.5t-64.5 34.5t-75 12q-59 0 -101.5 -19.5t-70.5 -41.5 q-33 -27 -54 -62v-528h-73v469q0 43 -16.5 77t-44.5 57.5t-63.5 35.5t-74.5 12q-61 0 -104.5 -19.5t-71.5 -41.5q-33 -27 -53 -62v-528h-74z" />
<glyph unicode="n" horiz-adv-x="727" d="M76 0v707h74v-107q18 33 51 57q29 23 71.5 41.5t104.5 18.5q154 0 214 -69.5t60 -184.5v-463h-73v469q0 90 -60.5 136t-146.5 46q-59 0 -99.5 -19.5t-68.5 -41.5q-33 -27 -53 -62v-528h-74z" />
<glyph unicode="o" horiz-adv-x="765" d="M45 344q0 186 93 279.5t253 93.5q147 0 238.5 -91t91.5 -266q0 -186 -92 -276t-252 -90q-150 0 -241 88t-91 262zM119 344q0 -78 20.5 -133t55 -92t82 -54.5t100.5 -17.5q117 0 193.5 76t76.5 237q0 147 -73.5 224.5t-182.5 77.5q-117 0 -194.5 -77t-77.5 -241z" />
<glyph unicode="p" horiz-adv-x="788" d="M76 -326v1033h74v-86q27 25 65 47q35 18 84 33.5t119 15.5q55 0 112.5 -19.5t104.5 -63.5t77.5 -116t30.5 -176q0 -96 -32.5 -161.5t-82.5 -107.5t-110.5 -60.5t-114.5 -18.5q-61 0 -108 14.5t-80 32.5q-37 20 -65 47v-414h-74zM150 152q35 -31 75 -54q35 -20 82 -35.5 t105 -15.5q47 0 93 21.5t83 61.5t59.5 93t22.5 119q0 82 -22.5 141.5t-58.5 99.5t-80 59.5t-89 19.5q-61 0 -111.5 -16.5t-85.5 -37.5q-41 -23 -73 -51v-405z" />
<glyph unicode="q" horiz-adv-x="788" d="M45 342q0 104 32 176t81 116t111.5 63.5t123.5 19.5t107.5 -15.5t77.5 -33.5q37 -23 61 -47v86h74v-1033h-74v414q-31 -27 -68 -47q-35 -18 -82 -32.5t-108 -14.5q-49 0 -108.5 18.5t-109.5 60.5t-84 107.5t-34 161.5zM119 342q0 -66 22.5 -119t59.5 -93t83 -61.5 t93 -21.5q57 0 105 15.5t83 35.5q41 23 74 54v405q-33 29 -74 51q-35 20 -84 37t-108 17q-47 0 -92 -19.5t-81 -59.5t-58.5 -99.5t-22.5 -141.5z" />
<glyph unicode="r" horiz-adv-x="423" d="M76 0v707h74v-183q20 53 51 97q27 35 66.5 65.5t94.5 30.5q16 0 33 -4q8 -2 15 -2v-62q-6 0 -15 2q-6 0 -14 1t-19 1q-45 0 -82.5 -32.5t-66.5 -73.5q-35 -47 -63 -107v-440h-74z" />
<glyph unicode="s" horiz-adv-x="604" d="M76 23v57q20 -14 49 -23q25 -8 60.5 -14t82.5 -6q84 0 135.5 36t51.5 117q0 57 -28 89t-71 49.5t-91 30t-91 32t-70.5 53t-27.5 95.5q0 35 19.5 68.5t51 60t72.5 43t84 16.5q47 0 83 -7t58 -15q27 -8 43 -21v-57q-16 12 -41 22q-23 8 -57.5 15.5t-85.5 7.5 q-29 0 -55.5 -10.5t-49 -28t-35.5 -42t-13 -52.5q0 -49 27.5 -74t70.5 -39t91 -25.5t91 -34t70.5 -62.5t27.5 -114q0 -37 -12 -73.5t-43 -66.5t-82 -49t-129 -19q-47 0 -82 6t-57 14q-27 8 -47 21z" />
<glyph unicode="t" horiz-adv-x="440" d="M14 629v55h133v350h74v-350h205v-55h-205v-396q0 -88 30 -138t116 -50h59v-49q-4 -2 -16 -2q-10 -2 -33 -2h-58q-92 0 -132 60.5t-40 180.5v396h-133z" />
<glyph unicode="u" horiz-adv-x="727" d="M76 246v461h74v-480q0 -74 57 -124t149 -50q61 0 103.5 18.5t68.5 41.5q31 27 50 61v533h73v-709h-73v111q-23 -35 -58 -62q-29 -23 -75 -41t-105 -18q-74 0 -125 19.5t-82 53t-44 80.5t-13 105z" />
<glyph unicode="v" horiz-adv-x="665" d="M20 707h89l227 -633l215 633h80l-244 -707h-102z" />
<glyph unicode="w" horiz-adv-x="1024" d="M14 707h88l166 -629l217 629h54l194 -629l182 629h84l-215 -707h-94l-176 594l-201 -594h-104z" />
<glyph unicode="x" horiz-adv-x="604" d="M14 0l234 354l-234 353h78l195 -293l194 293h78l-233 -363l231 -344h-78l-192 283l-195 -283h-78z" />
<glyph unicode="y" horiz-adv-x="714" d="M12 -340l29 66q8 -8 18 -15q10 -4 22.5 -8t29.5 -4q45 0 81.5 15.5t59.5 70.5l82 201l-309 721h81l271 -619l227 619h82l-334 -861q-23 -55 -42 -94t-45.5 -63.5t-63.5 -34.5t-95 -10q-27 0 -44 2t-27 6q-12 4 -23 8z" />
<glyph unicode="z" horiz-adv-x="641" d="M76 0v8l436 643h-397v56h512v-15l-432 -635h426v-57h-545z" />
<glyph unicode="{" horiz-adv-x="389" d="M45 317v54q61 6 93 56t32 134v240q0 66 15.5 110.5t43 73.5t64.5 42t82 17v-65q-72 -6 -99.5 -55.5t-27.5 -126.5v-246q0 -82 -22.5 -136.5t-94.5 -74.5q68 -16 92.5 -70.5t24.5 -140.5v-235q0 -43 2 -78t14 -59.5t38 -38t73 -13.5v-63q-100 0 -152.5 55t-52.5 182v244 q0 84 -32 135t-93 59z" />
<glyph unicode="|" horiz-adv-x="227" d="M76 -256v1401h76v-1401h-76z" />
<glyph unicode="}" horiz-adv-x="389" d="M14 -295q45 0 71 13.5t38 38t15 59t3 78.5v235q0 86 24.5 140.5t92.5 70.5q-72 20 -94.5 74.5t-22.5 136.5v246q0 78 -27.5 127t-99.5 55v65q45 -4 82 -17t64.5 -42t43 -74t15.5 -110v-240q0 -84 32 -134t93 -56v-54q-61 -8 -93 -59t-32 -135v-244q0 -127 -52 -182 t-153 -55v63z" />
<glyph unicode="~" horiz-adv-x="724" d="M76 338q0 84 45 123t112 39q35 0 66 -17.5t63.5 -39t68.5 -39t79 -17.5q33 0 59.5 29.5t30.5 83.5h49q-4 -98 -49 -130t-113 -32q-33 0 -63.5 17.5t-62 37t-64.5 36.5t-70 17q-49 0 -77.5 -26.5t-28.5 -81.5h-45z" />
<glyph unicode="&#xa9;" horiz-adv-x="1306" d="M76 496q0 125 47 233.5t128 189t189.5 127t233.5 46.5t233.5 -46.5t189.5 -127t127 -189t46 -233.5t-46 -233.5t-127 -188.5t-189.5 -126t-233.5 -46t-233.5 46t-189.5 126t-128 188.5t-47 233.5zM123 496q0 -115 43 -214.5t116.5 -173t174 -116.5t215.5 -43t215 43 t175 116.5t118 173t43 214.5t-43 215t-118 173.5t-175.5 116.5t-214.5 43q-115 0 -215.5 -43t-174 -116.5t-116.5 -173.5t-43 -215zM358 485q0 176 100.5 275.5t266.5 99.5q47 0 94 -5t84 -19l-22 -48q-37 16 -76 20.5t-80 4.5q-135 0 -220 -87t-85 -241q0 -160 85 -240.5 t220 -80.5q53 0 84 8t72 31l22 -49q-41 -23 -87 -31t-101 -8q-162 0 -259.5 98t-97.5 272z" />
<glyph unicode="&#xad;" horiz-adv-x="512" d="M76 389v72h360v-72h-360z" />
<glyph unicode="&#xae;" horiz-adv-x="1345" d="M76 496q0 125 47 233.5t128 189t189.5 127t233.5 46.5t233.5 -46.5t189.5 -127t127 -189t46 -233.5t-46 -233.5t-127 -188.5t-189.5 -126t-233.5 -46t-233.5 46t-189.5 126t-128 188.5t-47 233.5zM123 498q0 -115 43 -215.5t117.5 -174t174 -116.5t214.5 -43t215 43 t174 116.5t117 174t43 215.5q0 113 -43 213t-117 173.5t-174.5 116.5t-214.5 43q-115 0 -214.5 -43t-174 -116.5t-117.5 -173.5t-43 -213zM471 145v725h219q90 0 150.5 -49t60.5 -141q0 -49 -14.5 -84t-39 -58.5t-57 -37t-67.5 -19.5q37 -20 63.5 -54t44.5 -60l148 -222h-76 l-123 201q-33 53 -80 87t-75 34h-90v-322h-64zM535 516h114q37 0 71 10.5t59.5 32t42 51t16.5 70.5q0 61 -44 100t-122 39h-137v-303z" />
<glyph unicode="&#xbc;" horiz-adv-x="1376" d="M90 1067v37q23 10 45.5 24.5t38.5 28.5q20 16 35 35h51v-537h-47v473q-18 -12 -53 -32.5t-70 -28.5zM324 0l731 1202h75l-729 -1202h-77zM979 176v45l248 357h51v-365h68v-37h-68v-135h-47v135h-252zM1022 213h209v305z" />
<glyph unicode="&#xbd;" horiz-adv-x="1402" d="M90 1067v37q23 10 45.5 24.5t38.5 28.5q20 16 35 35h51v-537h-47v473q-18 -12 -53 -32.5t-70 -28.5zM324 0l731 1202h75l-729 -1202h-77zM1024 41v41q0 49 41 93t91 88t91 89.5t41 98.5q0 57 -28.5 83.5t-77.5 26.5q-37 0 -75 -9t-60 -38v39q25 27 58.5 36t76.5 9 q66 0 109.5 -35t43.5 -106q0 -61 -42 -112.5t-93 -96.5t-92 -87t-41 -83h291v-37h-334z" />
<glyph unicode="&#xbe;" horiz-adv-x="1374" d="M76 684v41q29 -23 56.5 -29t64.5 -6q66 0 101.5 30t35.5 83q0 59 -44 90t-157 31v32q49 4 88 17q35 10 62.5 33.5t27.5 64.5q0 53 -25.5 79t-70.5 26q-23 0 -56.5 -7.5t-60.5 -25.5v39q27 16 53.5 22t63.5 6q66 0 104.5 -36.5t38.5 -86.5q0 -51 -22.5 -86.5t-75.5 -58.5 q53 -8 87 -46t34 -87q0 -78 -54.5 -116t-129.5 -38q-41 0 -69 8.5t-52 20.5zM324 0l731 1202h75l-729 -1202h-77zM977 176v45l248 357h51v-365h67v-37h-67v-135h-47v135h-252zM1020 213h209v305z" />
<glyph unicode="&#xe01;" horiz-adv-x="839" d="M45 662q29 57 76 104q41 39 105.5 71.5t156.5 32.5q61 0 128 -13t123 -45t93 -84t37 -128v-491q0 -29 -11.5 -48.5t-23.5 -33.5q-16 -16 -35 -27h-16v559q0 76 -27.5 123t-71.5 74.5t-97.5 38t-102.5 10.5q-63 0 -110.5 -22.5t-80.5 -49.5q-37 -33 -67 -71l121 -103 q-8 -10 -15 -33q-6 -18 -10 -49t-4 -78v-399h-88v395q0 39 6 69t16 52q8 25 23 43q-37 29 -64 51q-23 18 -42 33.5t-19 18.5z" />
<glyph unicode="&#xe02;" horiz-adv-x="696" d="M45 782v68h117q68 0 120 -38t52 -130q0 -51 -26.5 -91t-57.5 -71q-16 -16 -36.5 -54t-20.5 -112v-82q0 -39 5 -78.5t23.5 -72.5t53 -54.5t92.5 -21.5q53 0 85.5 22.5t51 57.5t26 74t7.5 73v578h84v-578q0 -61 -12.5 -114.5t-40 -93t-75 -62t-116.5 -22.5 q-80 0 -133.5 22.5t-84 62t-43 93t-12.5 114.5v82q0 59 11.5 98.5t27 66t34 45t34.5 36.5q12 14 25.5 40t13.5 42q0 37 -17.5 68.5t-70.5 31.5h-117z" />
<glyph unicode="&#xe03;" horiz-adv-x="696" d="M45 786v64q12 0 27.5 -7t27.5 -18q14 -10 31 -22q12 12 29 22q12 10 29.5 17.5t33.5 7.5q70 0 100.5 -42t30.5 -106q0 -61 -27.5 -97t-58.5 -66q-8 -8 -20 -22.5t-24.5 -36t-21.5 -48t-9 -57.5v-103q0 -39 6 -78.5t24.5 -72.5t52 -54.5t89.5 -21.5q53 0 86.5 23.5 t52 59.5t26 76t7.5 75v571h84v-563q0 -68 -11.5 -123t-41 -96t-79 -63.5t-124.5 -22.5q-74 0 -124.5 22.5t-80 61t-42 92t-12.5 114.5v103q0 61 28 121.5t79 103.5q8 6 18.5 13.5t18.5 17.5t14 26.5t6 44.5q0 37 -20.5 54.5t-42.5 25.5q-14 4 -28.5 -5t-28.5 -21 q-16 -14 -33 -33q-14 16 -27 31q-10 12 -22.5 22t-22.5 10z" />
<glyph unicode="&#xe04;" horiz-adv-x="849" d="M76 0v600q0 68 30.5 118t81 84t112.5 51t126 17q63 0 125.5 -17t112 -51t80 -84t30.5 -118v-600h-84v600q0 53 -23.5 92t-62.5 63.5t-86 37t-92 12.5q-47 0 -94 -12.5t-85 -37t-62.5 -63.5t-24.5 -92v-272q27 35 63 63q29 25 71 45.5t91 20.5v-86q-45 0 -85 -17.5 t-71 -40.5q-37 -25 -67 -55v-258h-86z" />
<glyph unicode="&#xe05;" horiz-adv-x="849" d="M76 0v600q0 53 16.5 102.5t48 86t76.5 59t102 22.5q20 0 39 -13t35 -30q18 -20 33 -43q16 23 35 43q16 16 33.5 29.5t37.5 13.5q55 0 99.5 -22.5t76 -59t49 -86t17.5 -102.5v-600h-84v600q0 31 -8 66.5t-25.5 66.5t-45 51.5t-64.5 20.5q-16 0 -37 -18.5t-39 -41.5 q-23 -25 -45 -57q-25 33 -47 57q-20 23 -40 41.5t-36 18.5q-37 0 -64.5 -20.5t-44 -51.5t-24.5 -66.5t-8 -66.5v-272q29 35 63 63q29 25 70 45.5t90 20.5v-86q-45 0 -85 -17.5t-71 -40.5q-37 -25 -67 -55v-258h-86z" />
<glyph unicode="&#xe06;" horiz-adv-x="860" d="M45 786v64q10 0 25.5 -7t29.5 -18q16 -10 31 -22q12 12 29 22q12 10 29.5 17.5t33.5 7.5q57 2 94 -34t37 -114q0 -70 -24.5 -108.5t-55 -69t-56 -62.5t-25.5 -85l-3 -203q35 -31 76 -53q35 -20 82 -36.5t103 -16.5q74 0 123 18t76.5 53t38.5 84t11 111v516h84v-586 q0 -43 -17 -92t-51 -92t-85 -70.5t-121 -27.5q-78 0 -137.5 19t-100.5 44q-47 27 -79 64v-109h-87v387q0 74 26 108.5t56.5 61.5t56 57.5t25.5 92.5q0 39 -25.5 54t-47.5 15q-12 0 -26.5 -8t-27.5 -18q-14 -12 -26 -27q-10 16 -21 31q-10 12 -22.5 22t-28.5 10z" />
<glyph unicode="&#xe07;" horiz-adv-x="706" d="M45 561h84l123 -498q68 0 126 28t101 77t67.5 114.5t24.5 143.5q0 76 -24.5 142.5t-67.5 113.5t-98 74.5t-117 27.5v66q92 0 165 -33t124 -90t77.5 -135t26.5 -166q0 -100 -34.5 -179t-91 -134.5t-128 -84t-147.5 -28.5h-78z" />
<glyph unicode="&#xe08;" horiz-adv-x="808" d="M49 705q20 45 60 81q35 31 91 57.5t146 26.5q100 0 178 -32.5t131.5 -90t81 -135t27.5 -166.5q0 -96 -25.5 -178t-73 -141t-113 -93t-144.5 -34h-103l-82 330q-6 16 -15 18t-26 2h-41v66h84q25 0 35 -3t14.5 -7.5t4.5 -6.5t2 0l98 -336q84 0 141.5 36t92 91.5t50 123 t15.5 132.5q0 88 -26.5 156t-73 113t-106.5 67.5t-126 22.5q-72 0 -124 -25.5t-87 -56.5q-39 -37 -67 -82z" />
<glyph unicode="&#xe09;" horiz-adv-x="839" d="M45 391v66h59q53 0 78 -37t25 -90v-58q0 -47 5 -87t24.5 -69.5t58.5 -47t108 -17.5q53 0 103.5 19.5t89.5 44.5q45 29 84 65v338q0 145 -69.5 216t-194.5 71q-61 0 -112.5 -17.5t-88.5 -37.5q-43 -25 -78 -56l-28 66q35 31 81 55q41 20 97.5 37.5t128.5 17.5 q94 0 160.5 -24.5t107.5 -69.5t60.5 -105.5t19.5 -131.5v-539h-84v109q-41 -37 -90 -64q-43 -25 -100.5 -44t-127.5 -19q-123 0 -180 84t-57 227v24v20.5t-3 25t-8 20.5t-14 8h-55z" />
<glyph unicode="&#xe0a;" horiz-adv-x="747" d="M45 784v66h129q29 0 57.5 -9.5t51 -28.5t37 -52t14.5 -78q0 -51 -27.5 -92t-58.5 -72q-16 -16 -39 -57t-23 -107v-104q0 -35 5.5 -71t27 -65.5t63.5 -49t115 -19.5q55 0 96.5 27.5t67 67.5t37.5 83t12 76q0 53 -14 105.5t-43 93.5t-72 65.5t-102 24.5v65q53 0 98 31 t78 83t51.5 120.5t18.5 146.5h86q0 -131 -32 -211t-72 -125t-75.5 -60t-42.5 -17q4 -2 36 -16.5t69 -50.5t66.5 -97.5t29.5 -155.5q0 -51 -15.5 -107.5t-50 -104.5t-90 -78.5t-135.5 -30.5q-92 0 -149 21.5t-89 58t-44.5 88t-12.5 110.5v96q0 61 11.5 100.5t27 65t34 44 t34.5 36.5q12 16 25.5 41t13.5 41t-2 34.5t-10.5 34t-23.5 24.5t-40 9h-129z" />
<glyph unicode="&#xe0b;" horiz-adv-x="747" d="M45 786v64q12 0 27.5 -7t27.5 -18q14 -10 31 -22q12 12 29 22q12 10 29.5 17.5t33.5 7.5q55 0 93 -35t38 -113q0 -57 -25.5 -92t-54.5 -65q-8 -8 -23 -24.5t-29.5 -38t-25 -49t-10.5 -58.5v-125q0 -35 6.5 -71t28 -65.5t63.5 -49t111 -19.5q51 0 92 27.5t68 66.5t41 83 t14 79q0 53 -14 105.5t-43 92.5t-72 64.5t-102 24.5v65q53 0 98 31t78 83t51.5 120.5t18.5 146.5h86q0 -131 -33 -211t-73 -125t-75.5 -60t-42.5 -17q4 -2 36 -16.5t69 -50.5t67.5 -97.5t30.5 -155.5q0 -55 -16.5 -111.5t-52 -102.5t-93 -75.5t-139.5 -29.5q-86 0 -140 21.5 t-87 58t-45.5 87t-12.5 109.5v129q0 57 30 113.5t81 101.5q16 14 35.5 37t19.5 63q0 37 -21.5 54.5t-45.5 23.5q-12 4 -26.5 -6t-29.5 -20q-16 -14 -30 -31q-12 16 -23 31q-10 12 -22.5 22t-26.5 10z" />
<glyph unicode="&#xe0c;" horiz-adv-x="1372" d="M45 662q29 57 76 104q41 39 103.5 71.5t152.5 32.5q63 0 132 -13t126 -45t93 -84t36 -128v-426q29 -31 65 -53q31 -20 76 -36.5t99 -16.5q74 0 114.5 18t61 53t25.5 84t5 111v516h86v-578q0 -53 -11 -106t-38.5 -94t-73 -66.5t-114.5 -25.5q-78 0 -134.5 19t-90.5 44 q-43 29 -70 66v-109h-86v559q0 80 -30 128t-75 73.5t-98 35t-98 9.5q-59 0 -104.5 -22.5t-77.5 -49.5q-37 -33 -68 -71l121 -103q-10 -10 -19 -33q-6 -18 -11 -51t-5 -80v-291q0 -16 1 -27t17 -14h62v-63h-78q-61 0 -75.5 36t-14.5 93v266q0 39 6 69t16 52q8 25 23 43 q-37 29 -64 51q-23 18 -42 33.5t-19 18.5z" />
<glyph unicode="&#xe0d;" horiz-adv-x="1372" d="M45 662q29 57 76 104q41 39 103.5 71.5t152.5 32.5q63 0 132 -13t126 -45t93 -84t36 -128v-321q0 -45 8 -84t28.5 -68t57.5 -45t92 -16q63 0 110.5 17t82.5 40q37 25 67 59v668h86l-4 -744q0 -61 -20.5 -126.5t-61.5 -120t-104.5 -89t-149.5 -34.5q-53 0 -96 13t-72 30 q-35 20 -61 45l25 61q20 -25 53 -43q27 -16 66.5 -28.5t93.5 -12.5q59 0 105 22.5t78 62.5t48 95.5t16 118.5v9q-33 -37 -73 -64q-35 -25 -87.5 -44t-117.5 -19q-78 0 -127 21.5t-77 61t-39 96t-11 126.5v272q0 74 -27.5 122t-70.5 75.5t-97.5 38t-107.5 10.5 q-59 0 -104.5 -22.5t-77.5 -49.5q-37 -33 -66 -71l121 -103q-10 -12 -19 -35q-8 -18 -13 -50t-5 -79v-291q0 -16 2 -27t18 -14h60v-63h-70q-43 0 -69.5 25.5t-26.5 103.5v266q0 39 6 69t14 52q8 25 23 43q-37 29 -64 51q-23 18 -42 33.5t-19 18.5z" />
<glyph unicode="&#xe0e;" horiz-adv-x="839" d="M43 0v68h61q16 2 18.5 13t2.5 28v286q0 39 6 69t16 52q8 25 23 43q-37 29 -64 51q-23 18 -42 33.5t-19 18.5q31 57 78 104q41 39 103.5 71.5t154.5 32.5q70 0 138.5 -13t122.5 -45t88 -84t34 -128v-733q0 -25 -5 -56.5t-25.5 -60.5t-60.5 -48t-110 -19q-47 0 -89 15 t-73 34q-37 23 -65 49q-27 -27 -66 -49q-35 -18 -86 -33.5t-121 -15.5v65q70 0 121.5 15.5t85.5 33.5q39 23 68 49q29 -29 63 -51q29 -20 69 -35.5t87 -15.5q66 0 93.5 29.5t27.5 93.5v692q0 80 -30 128t-75 73.5t-98 35t-98 9.5q-59 0 -105.5 -22.5t-78.5 -49.5 q-37 -33 -66 -71l121 -103q-12 -14 -21 -37q-8 -20 -13 -50t-5 -77v-266q0 -129 -94 -129h-72z" />
<glyph unicode="&#xe0f;" horiz-adv-x="839" d="M43 0v68h61q16 2 18.5 14t2.5 29v282q0 39 6 69t16 52q8 25 23 45q-37 29 -64 51q-23 18 -42 33.5t-19 18.5q31 57 78 104q41 39 101.5 71.5t148.5 32.5q66 0 135.5 -13t125.5 -45t93 -84t37 -128v-706q0 -23 -3 -59t-19.5 -69.5t-55.5 -58t-108 -24.5q-33 0 -63 14 t-52 31q-27 20 -53 45l-70 -107l-80 109q-29 -25 -61 -45q-29 -16 -64 -30.5t-72 -14.5v63q29 0 65 15.5t65 35.5q35 23 67 51l80 -108l70 100q2 -4 12 -19.5t29.5 -31.5t46 -29.5t59.5 -13.5q41 0 65.5 13.5t37 34t15.5 42t3 37.5v684q0 80 -31 129t-76 74.5t-99 34 t-99 8.5q-59 0 -103.5 -22.5t-76.5 -49.5q-37 -33 -66 -71l119 -103q-10 -14 -19 -37q-8 -20 -13 -50t-5 -77v-266q0 -78 -27.5 -103.5t-75.5 -25.5h-63z" />
<glyph unicode="&#xe10;" horiz-adv-x="808" d="M45 705q20 45 59 81q35 31 94.5 57.5t151.5 26.5q86 0 158 -26q20 6 50 16t56.5 25.5t45 35t18.5 48.5h86q0 -41 -17.5 -68t-44 -44t-58.5 -27.5t-60 -18.5q86 -59 133 -153.5t47 -211.5q0 -82 -20.5 -161.5t-63.5 -143t-109.5 -102.5t-158.5 -39h-107l-82 334 q-6 16 -17 16h-28h-37v66h76q23 0 35 -3t18 -8.5t8.5 -9.5t4.5 -4l96 -328q84 0 141.5 36t92 91.5t50 123t15.5 132.5q0 88 -27.5 156t-74 113t-104.5 67.5t-122 22.5q-74 0 -125 -27.5t-86 -62.5q-39 -39 -63 -90zM63 -362q47 0 83 14t59 33q27 20 47 47l70 -101l69 101 q0 -2 11.5 -17.5t30 -32t45 -30.5t59.5 -14q39 0 60 12t29.5 29.5t9.5 34t1 24.5v84h86v-80q2 -49 -14 -86q-14 -33 -48 -58.5t-104 -25.5q-47 0 -76.5 14.5t-50.5 30.5q-23 20 -37 45l-71 -108l-70 110q-16 -27 -41 -47q-23 -16 -58.5 -30.5t-89.5 -14.5v66z" />
<glyph unicode="&#xe11;" horiz-adv-x="860" d="M45 813v64q10 0 25.5 -7.5t29.5 -17.5q16 -10 31 -23q12 12 29 23q12 10 29.5 17.5t37.5 7.5q23 0 46.5 -8.5t44 -23t32.5 -34.5t12 -47q25 31 56 53q27 20 63.5 36.5t81.5 16.5q51 0 93 -25.5t73 -66.5t47.5 -93t16.5 -105v-580h-86v518q0 123 -45.5 194.5t-116.5 71.5 q-82 0 -146.5 -66.5t-108.5 -155.5t-67.5 -177t-23.5 -133v-33v-219h-86v203q0 111 24.5 195.5t54 149t54 108.5t24.5 75q0 39 -24.5 56.5t-48.5 17.5q-12 0 -25.5 -8.5t-26.5 -18.5q-14 -12 -28 -26q-12 16 -25 30q-10 10 -23.5 20.5t-23.5 10.5z" />
<glyph unicode="&#xe12;" horiz-adv-x="1372" d="M45 436q0 121 20.5 204t55.5 134t83 73.5t101 22.5q12 0 30.5 -13t37.5 -30l43 -43q23 23 45 43q18 16 36.5 29.5t28.5 13.5q109 0 173.5 -72.5t64.5 -181.5v-442q27 -31 63 -53q31 -20 76 -36.5t103 -16.5q72 0 113.5 18t62 53t25.5 84t5 111v516h84v-578 q0 -53 -12 -105t-41 -93t-75 -66.5t-115 -25.5q-78 0 -132.5 19t-89.5 42q-41 27 -67 61v-104h-84v616q0 33 -9 67t-26.5 61.5t-44.5 44t-63 16.5q-16 0 -37 -18.5t-39 -41.5q-23 -25 -45 -57q-25 33 -47 57q-20 23 -40 41.5t-36 18.5q-27 0 -55.5 -20.5t-53 -64.5 t-40 -113.5t-15.5 -170.5q0 -184 61.5 -287.5t184.5 -103.5q23 0 34 1t17 3q8 2 10 6v-63q-4 -4 -12 -6t-19.5 -3t-29.5 -1q-84 0 -146.5 36.5t-103.5 99t-60.5 144.5t-19.5 174z" />
<glyph unicode="&#xe13;" horiz-adv-x="1372" d="M45 662q29 57 76 104q41 39 105.5 71.5t156.5 32.5q70 0 137.5 -15t121.5 -48t88 -84t34 -123v-266q0 -61 5 -110.5t24.5 -85.5t59.5 -54t110 -18q59 0 105 16t79 37q37 23 63 55v676h86v-850h-86v109q-29 -37 -71 -64q-37 -25 -92.5 -44t-133.5 -19q-66 0 -110.5 25.5 t-72.5 66.5t-40 93t-12 105v287q0 76 -27.5 123t-70.5 74.5t-95.5 38t-103.5 10.5q-59 0 -105.5 -22.5t-78.5 -49.5q-37 -33 -68 -71l121 -103q-10 -12 -19 -35q-8 -18 -13 -50t-5 -79v-291q0 -16 1 -27t17 -14h62v-63h-82q-61 0 -73.5 36t-12.5 93v266q0 39 6 69t16 52 q8 25 23 43q-37 29 -64 51q-23 18 -42 33.5t-19 18.5z" />
<glyph unicode="&#xe14;" horiz-adv-x="839" d="M45 436q0 123 34 206t88 134t119.5 72.5t129.5 21.5q61 0 123.5 -13t112.5 -45t81 -84t31 -128v-600h-84v610q0 45 -22.5 81t-59.5 61.5t-84 39t-98 13.5q-53 0 -105.5 -23.5t-92.5 -69.5t-64.5 -116t-24.5 -160q0 -178 59.5 -284.5t186.5 -106.5q33 0 49 4q8 2 12 6v-63 q-4 -4 -12 -6q-6 -2 -17.5 -3t-29.5 -1q-72 0 -132.5 30.5t-104.5 89t-69.5 142.5t-25.5 192z" />
<glyph unicode="&#xe15;" horiz-adv-x="839" d="M45 436q0 121 20.5 204t55.5 134t83 73.5t101 22.5q23 0 42.5 -13t35.5 -30q18 -20 33 -43q14 23 33 43q16 16 35.5 29.5t41.5 13.5q43 0 86 -19.5t77 -53t54.5 -80.5t20.5 -101v-616h-84v616q0 33 -11.5 67t-31 60.5t-45 44t-53.5 17.5q-16 0 -38 -18.5t-40 -41.5 q-23 -25 -45 -57q-25 33 -47 57q-20 23 -40 41.5t-36 18.5q-27 0 -55.5 -20.5t-52 -64.5t-39 -113.5t-15.5 -170.5q0 -78 12.5 -148.5t41 -123.5t74.5 -86t116 -33q23 0 34 1t17 3q8 2 10 6v-63q-4 -4 -12 -6q-6 -2 -15.5 -3t-25.5 -1q-86 0 -149.5 34.5t-105.5 96 t-62.5 144.5t-20.5 179z" />
<glyph unicode="&#xe16;" horiz-adv-x="839" d="M45 662q29 57 76 104q41 39 102.5 71.5t153.5 32.5q63 0 132 -13t126 -45t93 -84t36 -128v-491q0 -29 -11.5 -48.5t-23.5 -33.5q-16 -16 -35 -27h-16v559q0 78 -30 126t-75 74.5t-98 36t-98 9.5q-59 0 -105.5 -22.5t-81.5 -49.5q-39 -33 -69 -71l121 -103q-8 -10 -15 -33 q-6 -18 -10 -51t-4 -80v-291q0 -16 2 -27t18 -14h60v-63h-57q-61 -2 -86 27.5t-25 101.5v266q0 39 6 69t16 52q8 25 23 43q-37 29 -64 51q-23 18 -42 33.5t-19 18.5z" />
<glyph unicode="&#xe17;" horiz-adv-x="829" d="M76 0v850h84v-107q35 35 84 64q41 23 100 43t137 20q70 0 121 -26.5t85 -68.5t50.5 -94t16.5 -101v-580h-84v518q0 143 -60.5 204.5t-183.5 61.5q-59 0 -107.5 -16t-82.5 -37q-41 -23 -76 -53l2 -678h-86z" />
<glyph unicode="&#xe18;" horiz-adv-x="829" d="M76 662q0 70 39 110.5t94 63t114.5 29.5t102.5 7q53 0 107.5 -12t99.5 -26q53 -16 100 -37v-62q-51 18 -104 35q-45 14 -99.5 25.5t-103.5 11.5q-31 0 -76 -3t-88 -16.5t-72.5 -43t-29.5 -82.5q0 -66 44 -90.5t109.5 -33t143.5 -13.5t143.5 -29.5t109.5 -82t44 -171.5 q0 -49 -16.5 -95.5t-55.5 -83t-103.5 -59t-160.5 -22.5q-25 0 -77 3t-106.5 27.5t-95.5 79.5t-41 160v166h82v-166q0 -76 28 -118t67.5 -61.5t80.5 -23.5t70 -4q59 0 104 17.5t76 45t47.5 62.5t16.5 70q0 98 -44 144t-109.5 65.5t-143.5 22.5t-143.5 17.5t-109.5 51.5 t-44 121z" />
<glyph unicode="&#xe19;" horiz-adv-x="829" d="M76 270v586h84v-516q0 -61 9 -111.5t35.5 -87.5t76 -56t129.5 -19q55 0 102 16t82 37q41 23 76 53l-2 684h86v-856h-84v106q-35 -37 -82 -63q-41 -23 -99.5 -42t-136.5 -19q-70 0 -121 25.5t-85.5 67.5t-52 93t-17.5 102z" />
<glyph unicode="&#xe1a;" horiz-adv-x="808" d="M76 287v563h84v-571q0 -35 10 -76t32.5 -76t61.5 -58.5t98 -23.5h87q55 0 93 23.5t61.5 58.5t34.5 76t11 76v571h84v-563q0 -59 -16.5 -114.5t-49 -97.5t-81.5 -67.5t-115 -25.5h-143q-63 0 -110.5 25.5t-79.5 67.5t-47 97t-15 115z" />
<glyph unicode="&#xe1b;" horiz-adv-x="808" d="M76 287v563h84v-571q0 -35 9 -76t32.5 -76t61.5 -58.5t95 -23.5h86q55 0 94.5 23.5t64 58.5t35.5 76t11 76v837h84v-829q0 -59 -16.5 -114.5t-49 -97.5t-80.5 -67.5t-110 -25.5h-143q-68 0 -116 25.5t-80 67.5t-47 97t-15 115z" />
<glyph unicode="&#xe1c;" horiz-adv-x="985" d="M76 659q0 20 1 53t11 64t32.5 52.5t65.5 21.5h70v-66h-49q-18 0 -28.5 -15t-16.5 -36.5t-7 -42t-1 -33.5q-2 -92 14 -183t39 -165q23 -86 55 -164l203 476h33l194 -476q29 63 56 162q23 86 44 218t31 325h86q-16 -205 -45.5 -361.5t-58.5 -267.5q-35 -127 -72 -221h-57 l-197 479l-196 -479h-58q-43 100 -75 211q-29 94 -51.5 212t-22.5 236z" />
<glyph unicode="&#xe1d;" horiz-adv-x="985" d="M76 659q0 20 1 53t12 64t33.5 52.5t65.5 21.5h70v-66h-51q-18 0 -29.5 -16t-15.5 -37.5t-5 -43t-1 -32.5q0 -92 16 -183t37 -163q23 -86 55 -164l201 476h33l194 -476q37 104 68 250q25 125 46 311.5t21 436.5h84q0 -270 -27.5 -481t-62.5 -359q-39 -172 -88 -303h-57 l-197 487l-196 -487h-58q-43 100 -75 211q-29 94 -51.5 211t-22.5 237z" />
<glyph unicode="&#xe1e;" horiz-adv-x="1030" d="M14 850h78l189 -655l200 655h58l196 -655l193 655h78l-240 -850h-41l-215 715l-215 -715h-39z" />
<glyph unicode="&#xe1f;" horiz-adv-x="1112" d="M14 850h78l189 -655l200 655h58l196 -655l277 948h78l-324 -1143h-41l-215 721l-215 -721h-39z" />
<glyph unicode="&#xe20;" horiz-adv-x="839" d="M43 2v64h61q16 2 18.5 13t2.5 27v289q0 39 6 69t16 52q8 25 23 43q-37 29 -64 51q-23 18 -42 33.5t-19 18.5q31 57 78 104q41 39 104.5 71.5t155.5 32.5q61 0 128 -13t123 -45t93 -84t37 -128v-491q0 -29 -11.5 -48.5t-23.5 -33.5q-16 -16 -35 -27h-16v559 q0 76 -28.5 124t-73 75.5t-96.5 37t-97 9.5q-66 0 -113 -22.5t-80 -49.5q-37 -33 -63 -71l121 -103q-12 -14 -21 -37q-8 -20 -13 -50t-5 -77v-266q0 -78 -23.5 -102.5t-85.5 -24.5h-57z" />
<glyph unicode="&#xe21;" horiz-adv-x="829" d="M76 0v850h84v-664q35 -39 78 -67q37 -27 86 -47.5t106 -20.5q127 0 183.5 66.5t56.5 208.5v524h84v-578q0 -55 -18.5 -108t-54.5 -93t-87 -64.5t-117 -24.5q-78 0 -136 19t-99 44q-47 27 -82 64v-109h-84z" />
<glyph unicode="&#xe22;" horiz-adv-x="778" d="M45 242q0 72 29.5 120t64.5 76q41 33 97 49q-49 10 -86 35q-33 23 -58.5 61t-25.5 99q0 57 19 93t49 57.5t62.5 29.5t59.5 8q37 0 59.5 -2t36.5 -6t23 -6v-61q-6 2 -21 4q-12 2 -33.5 4t-56.5 2q-57 0 -85.5 -41t-28.5 -82q0 -33 16 -61.5t47 -51t72 -36t90 -13.5v-67 q-66 0 -112 -22.5t-75.5 -55.5t-44 -70t-14.5 -63q0 -37 9 -73t36 -63.5t75 -44t126 -16.5q74 0 121 23.5t74.5 58.5t37.5 76t10 76v571h84v-563q0 -59 -17 -114.5t-57 -97.5t-102.5 -67.5t-150.5 -25.5q-92 0 -155.5 18t-101.5 52t-55.5 82.5t-17.5 107.5z" />
<glyph unicode="&#xe23;" horiz-adv-x="686" d="M76 51v82q35 -25 76 -45q35 -16 83 -29.5t101 -13.5q55 0 92 17.5t58.5 46t30.5 63.5t9 70q0 66 -33.5 98.5t-83 51t-108.5 31.5t-108.5 37.5t-83 71t-33.5 130.5q0 53 24.5 93t62.5 65.5t85 37.5t92 12q59 0 102 -11t72 -25q33 -16 55 -35v-72q-23 20 -57 39 q-29 14 -72 26.5t-100 12.5q-31 0 -62.5 -9.5t-58 -26.5t-43 -43t-16.5 -60q0 -66 33.5 -100t83 -53t108.5 -32.5t108.5 -39t83 -71.5t33.5 -128q0 -49 -11 -96.5t-42 -84t-87 -58t-146 -21.5q-59 0 -104.5 10t-78.5 24q-37 14 -65 35z" />
<glyph unicode="&#xe24;" horiz-adv-x="839" d="M45 662q29 57 76 104q41 39 103.5 71.5t154.5 32.5q63 0 132 -13t125 -45t92 -84t36 -128v-919q0 -29 -11.5 -48.5t-23.5 -33.5q-16 -16 -35 -27h-16v987q0 76 -28.5 124t-73 75.5t-96.5 37t-97 9.5q-61 0 -109.5 -22.5t-83.5 -49.5q-39 -33 -69 -71l123 -103 q-8 -10 -17 -33q-6 -18 -10 -51t-4 -80v-291q0 -16 2 -27t18 -14h60v-63h-64q-55 0 -79.5 27.5t-24.5 101.5v266q0 39 6 69t16 52q8 25 23 43q-37 29 -64 51q-23 18 -42 33.5t-19 18.5z" />
<glyph unicode="&#xe25;" horiz-adv-x="757" d="M45 211q0 76 29.5 125t78 77.5t109 39t121.5 10.5q70 0 112 8t64 18q27 12 39 29v53q0 41 -11.5 83t-37 76t-66.5 54.5t-100 20.5q-70 0 -123 -26.5t-90 -59.5q-43 -37 -76 -84l-26 67q31 47 75 84q39 31 98.5 57.5t141.5 26.5q152 0 225.5 -80.5t73.5 -250.5v-539h-84 v442q-18 -16 -47 -26q-25 -10 -66 -17.5t-102 -7.5q-33 0 -76 -8t-83 -29.5t-67.5 -56.5t-27.5 -86q0 -47 17.5 -78t43 -51.5t58.5 -28.5t63 -8q23 0 39.5 1t26.5 3t18 6v-61q-10 -4 -22 -6q-23 -6 -56 -6q-139 0 -205.5 55t-66.5 174z" />
<glyph unicode="&#xe26;" horiz-adv-x="839" d="M43 0v66h61q16 2 18.5 13t2.5 27v289q0 39 6 69t16 52q8 25 23 43q-37 29 -64 51q-23 18 -42 33.5t-19 18.5q31 57 78 104q41 39 102.5 71.5t151.5 32.5q70 0 138.5 -13t123.5 -45t90 -84t35 -128v-919q0 -29 -11.5 -48.5t-23.5 -33.5q-16 -16 -35 -27h-16v987 q0 82 -31 130t-76 73.5t-99 34t-99 8.5q-59 0 -105.5 -22.5t-79.5 -49.5q-37 -33 -67 -71l121 -103q-8 -14 -17 -37q-6 -20 -11 -50t-5 -77v-266q0 -78 -24.5 -104.5t-82.5 -24.5h-59z" />
<glyph unicode="&#xe27;" horiz-adv-x="747" d="M45 66l27 65q20 -25 55 -43q29 -16 74 -29.5t106 -13.5q74 0 131.5 29.5t97 81t60 121t20.5 149.5q0 162 -82.5 260t-226.5 98q-61 0 -106 -11t-74 -23q-35 -16 -55 -35l-27 69q14 23 49 43q29 16 80 29.5t137 13.5q80 0 150.5 -27.5t124 -82.5t85 -139t31.5 -195 t-31.5 -195t-86 -139t-126 -82.5t-151.5 -27.5q-86 0 -136 12t-79 29q-33 18 -47 43z" />
<glyph unicode="&#xe28;" horiz-adv-x="849" d="M76 0v600q0 66 29.5 117t78.5 85t113.5 51t134.5 17q35 0 63.5 -4t59.5 -14q20 8 43 19.5t43.5 24.5t33.5 31.5t13 41.5h86q0 -35 -12 -57.5t-32.5 -39t-44 -29t-48.5 -22.5q59 -35 98 -86t39 -135v-600h-84v600q0 51 -23.5 90t-60.5 64.5t-83 38t-91 12.5 q-47 0 -94 -11.5t-87 -36t-64.5 -63.5t-24.5 -94v-278q29 37 63 67q29 25 70 46.5t90 21.5v-86q-43 0 -84 -17.5t-72 -40.5q-37 -25 -67 -57v-256h-86z" />
<glyph unicode="&#xe29;" horiz-adv-x="808" d="M76 287v563h84v-578q0 -33 9 -71.5t32.5 -73.5t61.5 -58.5t93 -23.5h86q55 0 95.5 23.5t66 58.5t36.5 76t11 76l-2 153h-184v86h184v328h84v-328h62v-86h-60l2 -145q0 -49 -15 -103.5t-48 -99.5t-84 -73.5t-121 -28.5h-143q-70 0 -118 27.5t-77 72.5t-42 98t-13 107z" />
<glyph unicode="&#xe2a;" horiz-adv-x="757" d="M45 211q0 76 32 125t81 77.5t111.5 39t123.5 10.5q70 0 109 8t61 18q23 12 33 29v53q0 41 -11.5 83t-37 76t-66.5 54.5t-100 20.5q-70 0 -123 -26.5t-90 -59.5q-43 -37 -76 -84l-29 70q31 45 78 81q41 31 99.5 57.5t140.5 26.5q35 0 76 -8q53 14 96 43t43 64h80 q0 -57 -39 -88t-92 -52q72 -45 103.5 -117.5t31.5 -172.5l2 -539h-86v442q-14 -14 -41 -24q-23 -10 -61.5 -17.5t-100.5 -7.5q-33 0 -78 -7t-87 -27.5t-70.5 -56.5t-28.5 -91q0 -47 16.5 -78t43 -51.5t58.5 -28.5t62 -8q23 0 39.5 1t26.5 3q12 2 20 6l-2 -59q-8 -4 -18 -8 q-23 -6 -66 -6q-139 0 -201.5 56t-62.5 173z" />
<glyph unicode="&#xe2b;" horiz-adv-x="788" d="M76 0v850h84v-418l418 418h108l-278 -279q41 -8 93 -27.5t99 -57t80 -100t33 -155.5v-231h-84l2 203q0 94 -33 155.5t-78 98.5t-89 52t-66 19l-205 -209l2 -319h-86z" />
<glyph unicode="&#xe2c;" horiz-adv-x="1112" d="M14 850h78l189 -662l200 662h58l198 -662l156 545q4 12 6 25.5t2 23.5q0 39 -21.5 68t-45.5 45q-31 20 -68 33q70 16 123 45q47 25 86 66.5t39 103.5h76q0 -78 -37 -121t-80 -66q-53 -25 -117 -32q41 -18 72 -43q27 -23 44 -55.5t7 -75.5q-2 -6 -2 -11.5t-4 -15.5 l-207 -723h-47l-209 715l-207 -715h-47z" />
<glyph unicode="&#xe2d;" horiz-adv-x="829" d="M43 303q0 55 12.5 84t73.5 29h164v-66h-137q-16 -2 -21.5 -8t-9.5 -23q-4 -43 5 -92t40 -89t87 -66.5t149 -26.5q80 0 135 29.5t90 81t51 121t16 149.5q0 78 -18 147.5t-55 120.5t-91.5 81t-127.5 30q-88 0 -141.5 -30t-82.5 -64q-35 -41 -51 -93h-86q16 70 59 125 q37 47 108 87t194 40q104 0 175.5 -39.5t116.5 -103t65.5 -143.5t20.5 -158q0 -119 -31.5 -203t-84 -138t-121 -78.5t-141.5 -24.5q-76 0 -141.5 20.5t-115 60t-78 100t-28.5 140.5z" />
<glyph unicode="&#xe2e;" horiz-adv-x="829" d="M43 303q0 68 17.5 90.5t70.5 22.5h162v-66h-137q-29 0 -31 -31q-4 -45 6 -93t41 -88t87 -66.5t147 -26.5q80 0 135 29.5t90 81t51 121t16 149.5q0 78 -18 147.5t-55 120.5t-91.5 81t-125.5 30q-88 0 -142.5 -30t-83.5 -64q-37 -41 -51 -93h-86q16 70 59 125q37 47 109 87 t195 40q33 0 58.5 -5t43.5 -9q20 6 46 15.5t48.5 22.5t37.5 31.5t15 43.5h78q0 -35 -12 -58.5t-32.5 -40t-44 -28t-48.5 -19.5q51 -33 86 -79t57.5 -98t32.5 -109.5t10 -110.5q0 -119 -31.5 -203t-84 -138t-121 -78.5t-141.5 -24.5q-76 0 -141.5 20.5t-115 60t-78 100 t-28.5 140.5z" />
<glyph unicode="&#xe2f;" horiz-adv-x="757" d="M45 850h86q23 -86 66 -135t129 -49q94 0 168.5 47t97.5 137h88v-563q0 -61 -1 -113.5t-16.5 -90.5t-49 -60.5t-97.5 -22.5v66q20 0 35.5 4t26 26.5t14.5 67.5t4 129v477q-25 -49 -61 -86q-33 -33 -82.5 -59.5t-118.5 -26.5q-111 -2 -188.5 57.5t-100.5 194.5z" />
<glyph unicode="&#xe30;" horiz-adv-x="481" d="M76 272v41h78v-75q0 -27 16 -38.5t70 -11.5h157l-24 -65h-148q-72 0 -110.5 27.5t-38.5 121.5zM76 723v45h78v-76q0 -27 16 -38t70 -11h157l-24 -65h-144q-35 0 -63.5 5t-49 20t-30.5 44t-10 76z" />
<glyph unicode="&#xe31;" d="M-481 1151v47h75v-78q0 -27 16.5 -38t70.5 -11h352l-25 -67h-336q-86 0 -119.5 32.5t-33.5 114.5z" />
<glyph unicode="&#xe32;" horiz-adv-x="655" d="M45 731v68q23 18 53 35q27 14 66 25t92 11q49 0 106.5 -16t105.5 -53t80 -96.5t32 -145.5v-559h-84v539q0 135 -78 200.5t-191 65.5q-31 0 -63.5 -11.5t-59.5 -25.5q-31 -16 -59 -37z" />
<glyph unicode="&#xe33;" horiz-adv-x="655" d="M-369 1151q0 59 44 103t106 44q29 0 55.5 -12t46 -31.5t31.5 -46t12 -57.5q0 -61 -43 -104t-102 -43q-61 0 -105.5 43t-44.5 104zM-301 1151q0 -35 23.5 -58.5t58.5 -23.5q33 0 57.5 23.5t24.5 58.5q0 33 -24.5 57.5t-57.5 24.5q-35 0 -58.5 -24.5t-23.5 -57.5zM45 731 v68q23 18 53 35q27 14 66 25t92 11q49 0 106.5 -16t105.5 -53t80 -96.5t32 -145.5v-559h-84v539q0 135 -78 200.5t-191 65.5q-31 0 -63.5 -11.5t-59.5 -25.5q-31 -16 -59 -37z" />
<glyph unicode="&#xe34;" d="M-645 1004l24 71h502v-71h-526z" />
<glyph unicode="&#xe35;" d="M-645 1004l24 69h418v125h84v-194h-526z" />
<glyph unicode="&#xe36;" d="M-645 1004l24 69h279q-2 8 -5 15.5t-3 15.5q-6 53 27.5 94t89.5 41q41 0 77.5 -31.5t36.5 -85.5q0 -45 -29.5 -81.5t-84.5 -36.5h-412zM-289 1120q0 -18 16.5 -34.5t34.5 -16.5q23 0 39.5 16.5t16.5 34.5q0 23 -16.5 39.5t-39.5 16.5q-18 0 -34.5 -16.5t-16.5 -39.5z" />
<glyph unicode="&#xe37;" d="M-645 1004l24 69h259v125h77v-125h82v125h84v-194h-526z" />
<glyph unicode="&#xe38;" d="M-262 -152h76q53 0 82.5 -37.5t29.5 -91.5v-127h-86v140q0 18 -12 33.5t-33 15.5h-57v67z" />
<glyph unicode="&#xe39;" d="M-494 -152h68q66 0 93.5 -39.5t27.5 -105.5q0 -63 74 -63q72 0 71 65v143h86v-135q0 -59 -28.5 -100t-124.5 -41q-59 0 -92 14.5t-49.5 37t-20.5 51t-4 57.5q0 18 -12.5 33.5t-32.5 15.5h-56v67z" />
<glyph unicode="&#xe3a;" d="M-160 -152h86v-92h-86v92z" />
<glyph unicode="&#xe3f;" horiz-adv-x="747" d="M76 0v973h196v172h78l2 -174q125 -2 191.5 -61.5t66.5 -155.5q0 -80 -49 -146.5t-131 -89.5q98 -16 170 -80t72 -166q0 -61 -23.5 -110t-66.5 -85t-102.5 -56.5t-129.5 -20.5v-170h-78v170h-196zM160 68h176q51 0 97 14t80 41t54.5 64.5t20.5 84.5q0 102 -76 156.5 t-199 54.5h-153v-415zM160 549h141q119 0 172 51t53 133q0 74 -45 124t-168 50h-153v-358z" />
<glyph unicode="&#xe40;" horiz-adv-x="286" d="M76 129v721h84v-744q0 -16 2 -27t18 -13h62v-66h-62q-61 0 -82.5 30.5t-21.5 98.5z" />
<glyph unicode="&#xe41;" horiz-adv-x="634" d="M76 129v721h84v-744q0 -16 2 -27t18 -13h62v-66h-56q-61 0 -85.5 28.5t-24.5 100.5zM403 129v721h84v-744q0 -16 2.5 -27t18.5 -13h61v-66h-57q-61 0 -85 28.5t-24 100.5z" />
<glyph unicode="&#xe42;" horiz-adv-x="395" d="M143 1139q0 45 14.5 76.5t46.5 50t84 26.5t128 8h147v-65h-157q-53 0 -88 -5t-55.5 -16.5t-28 -30t-7.5 -44.5q0 -29 6.5 -58.5t14.5 -66.5t14 -85t6 -112v-711q0 -16 2 -27t19 -13h61v-66h-55q-61 0 -86 25.5t-25 103.5v688q0 63 -6 111.5t-14 85.5t-14.5 66.5 t-6.5 58.5z" />
<glyph unicode="&#xe43;" horiz-adv-x="518" d="M0 1243q8 20 31 39q18 14 54 26.5t95 12.5q246 0 246 -248q0 -47 -6 -74.5t-14.5 -57.5t-14.5 -68.5t-6 -106.5v-662q0 -16 2 -27t19 -14h61v-63h-59q-59 0 -84 25.5t-25 103.5v637q0 61 7 104t14.5 78t14.5 64.5t7 60.5q0 57 -13.5 93t-37 55.5t-54 26.5t-63.5 7 q-41 0 -69.5 -12t-45.5 -29q-20 -18 -32 -40z" />
<glyph unicode="&#xe44;" horiz-adv-x="518" d="M0 1235v65q35 0 60.5 -8t44 -19t28.5 -21.5t14 -14.5q8 16 25 31q14 12 34.5 22t53.5 10q41 0 62.5 -20t30.5 -57t10.5 -86.5t1.5 -106.5v-926q0 -16 2 -27t18 -14h61v-63h-61q-53 0 -78.5 25.5t-25.5 103.5v901q0 20 1 59t-3.5 76t-17.5 59.5t-42 10.5 q-16 -8 -27.5 -22.5t-19.5 -28.5q-8 -16 -14 -35q-25 23 -49 43q-23 16 -51.5 29.5t-57.5 13.5z" />
<glyph unicode="&#xe45;" horiz-adv-x="655" d="M45 731v68q23 18 53 35q27 14 64 25t86 11q53 0 111.5 -16t107.5 -53t81 -96.5t32 -145.5v-878q0 -29 -11.5 -48.5t-23.5 -33.5q-14 -16 -33 -27h-16v967q0 133 -76 199.5t-193 66.5q-31 0 -63.5 -11.5t-59.5 -25.5q-31 -16 -59 -37z" />
<glyph unicode="&#xe46;" horiz-adv-x="778" d="M45 641q0 109 50 169t136 60q23 0 47.5 -13t47.5 -30q25 -20 49 -43q23 23 47 43q20 16 46 29.5t48 13.5q51 0 86 -18t57.5 -50t32.5 -74t10 -87v-960q0 -29 -11 -48.5t-23 -33.5q-14 -16 -33 -27h-17v1028q0 39 -4 76t-17 65.5t-37.5 46t-63.5 17.5q-16 0 -38 -17.5 t-40 -37.5q-23 -23 -43 -54q-20 31 -43 54q-18 20 -40 37.5t-40 17.5q-61 0 -92 -51.5t-31 -112.5q0 -41 9 -68.5t20 -46.5q12 -23 28 -34l-28 -74q-33 12 -58 41q-23 25 -39 67.5t-16 114.5z" />
<glyph unicode="&#xe47;" d="M-635 1130q0 53 21.5 83t49 44.5t55.5 17.5t40 3h164q47 0 74.5 5t44.5 13q18 8 26 19v-62q-8 -8 -26 -16q-16 -6 -44 -11t-75 -5h-144q-61 0 -84.5 -25t-23.5 -66q0 -18 13.5 -42.5t54.5 -24.5q29 0 45 9t26 20q10 12 15 30h32q2 -18 11 -30q6 -10 18 -19.5t35 -9.5 q45 0 57 24.5t12 34.5h78q0 -55 -38 -86.5t-89 -31.5q-23 0 -42 4t-31 8q-16 6 -27 12q-12 -6 -31 -12q-16 -4 -38.5 -8t-53.5 -4q-14 0 -35.5 6t-41 20t-34 39t-14.5 61z" />
<glyph unicode="&#xe48;" d="M-160 1004v194h86v-194h-86z" />
<glyph unicode="&#xe49;" d="M-532 1130v68h112q31 0 56.5 -26.5t25.5 -57.5q0 -16 12.5 -28.5t28.5 -12.5h270l-26 -69h-277q-51 0 -77.5 28.5t-26.5 57.5q0 27 -12.5 33.5t-24.5 6.5h-61z" />
<glyph unicode="&#xe4a;" d="M-541 1069q0 51 37 89t90 38q23 0 40.5 -6t29.5 -12q12 -9 22 -19q8 10 23 19q10 8 28.5 14t41.5 6q53 0 80.5 -32.5t27.5 -71.5q0 -16 6 -18.5t17 -2.5h71l-26 -69h-60q-57 0 -73.5 17t-16.5 48q0 35 -13 48t-34 13q-27 0 -42 -19t-15 -42h-31q0 20 -12 40.5t-43 20.5 q-16 0 -39 -13t-23 -48q0 -31 15 -49q6 -8 14 -16h-82q-8 6 -16 14q-6 8 -11.5 20.5t-5.5 30.5z" />
<glyph unicode="&#xe4b;" d="M-262 1067v68h102v63h86v-63h101v-68h-101v-63h-86v63h-102z" />
<glyph unicode="&#xe4c;" d="M-328 1004v26q0 76 38 122t124 46h78l-25 -68h-37q-43 0 -68.5 -26.5t-25.5 -65.5v-34h-84z" />
<glyph unicode="&#xe4d;" d="M-369 1151q0 61 44 104t106 43q59 0 102 -43t43 -104t-43 -104t-102 -43q-61 0 -105.5 43t-44.5 104zM-301 1151q0 -35 23.5 -58.5t58.5 -23.5q33 0 57.5 23.5t24.5 58.5q0 33 -24.5 57.5t-57.5 24.5q-35 0 -58.5 -24.5t-23.5 -57.5z" />
<glyph unicode="&#xe4e;" d="M-434 1065q0 57 40 97t111 40q0 63 37 96t146 33v-57q-31 0 -56.5 1t-44 -9.5t-29 -37t-10.5 -79.5q-43 0 -79.5 -15.5t-36.5 -62.5q0 -33 14 -51q6 -10 14 -16h-92q-10 23 -12 37t-2 24z" />
<glyph unicode="&#xe4f;" horiz-adv-x="890" d="M76 354q0 78 29.5 146.5t80 119t119 79t146.5 28.5t146.5 -28.5t118.5 -79t78.5 -119t28.5 -146.5t-28.5 -145.5t-78.5 -118.5t-119 -79.5t-146 -28.5q-78 0 -146.5 28.5t-119 79.5t-80 118.5t-29.5 145.5zM176 354q0 -55 21.5 -105t59.5 -88t88 -59.5t106 -21.5 q57 0 107 21.5t87 59.5t58.5 88t21.5 105q0 57 -21.5 107.5t-58.5 87.5t-87 58.5t-107 21.5q-55 0 -105.5 -21.5t-88.5 -58.5t-59.5 -87t-21.5 -108zM264 354q0 39 14.5 73t40 59.5t59.5 40t73 14.5q78 0 132 -54.5t54 -132.5q0 -39 -14.5 -72.5t-40 -59t-59.5 -40 t-72 -14.5q-78 0 -132.5 54t-54.5 132z" />
<glyph unicode="&#xe50;" horiz-adv-x="831" d="M45 354q0 78 28.5 145.5t79 119t118 80t145.5 28.5t145.5 -28.5t118.5 -80t79.5 -119t28.5 -145.5t-28.5 -145.5t-77.5 -118.5t-116.5 -79.5t-145.5 -28.5t-146.5 28.5t-119 79.5t-80 118.5t-29.5 145.5zM131 354q0 -63 22.5 -119.5t60.5 -97.5t90 -65.5t112 -24.5 q57 0 109.5 24.5t91 65.5t61 97.5t22.5 119.5t-22.5 118.5t-61 96.5t-91 65.5t-109.5 24.5q-59 0 -111.5 -24.5t-90.5 -65.5t-60.5 -96.5t-22.5 -118.5z" />
<glyph unicode="&#xe51;" horiz-adv-x="829" d="M45 428q0 55 24.5 108.5t71.5 95.5t112.5 68.5t149.5 26.5q74 0 143.5 -24.5t122 -73.5t84 -125t31.5 -180q0 -78 -32.5 -151t-91 -130t-140.5 -91t-182 -34q-8 0 -3 0t-5 2l18 68h8q63 0 125 26.5t111 71.5t78.5 106.5t29.5 131.5q0 86 -23.5 149.5t-63.5 105.5 t-94 62.5t-116 20.5q-84 0 -137 -28t-83.5 -65t-42 -76.5t-11.5 -64.5q0 -35 11.5 -70.5t32 -63.5t45 -45.5t52.5 -17.5q55 0 79 22.5t24 57.5v39h84v-26q0 -27 -8.5 -54.5t-30 -51t-57 -38t-91.5 -14.5q-43 0 -84 18.5t-71.5 52t-50 82t-19.5 109.5z" />
<glyph unicode="&#xe52;" horiz-adv-x="1044" d="M14 1071v64h31q76 0 120 -27t66.5 -69t28.5 -91t6 -94v-641q0 -51 21.5 -82t51.5 -46t62.5 -20.5t55.5 -5.5h268q27 0 59.5 5.5t62.5 21.5t49 50t19 93v236q0 72 -31.5 124t-99.5 52q-25 0 -42 -12.5t-29 -28.5q-14 -18 -23 -41q-8 23 -20 41q-10 16 -27.5 28.5 t-42.5 12.5q-49 0 -83 -28.5t-34 -73.5t17.5 -74t43 -44t55.5 -20.5t52 -5.5v-65q-29 0 -72.5 8t-85.5 32.5t-73 67.5t-31 113q0 27 12.5 57.5t36 56t56 43t75.5 17.5q31 0 53.5 -6t39.5 -14q18 -8 30 -19q10 10 27 19q14 8 36.5 14t53.5 6q45 0 81 -22.5t60.5 -58.5 t36.5 -83t12 -96v-221q0 -76 -22.5 -126t-57 -81t-76.5 -43t-81 -12h-326q-45 0 -91 12t-84 43t-61.5 81t-23.5 126v616q0 33 -5 70t-22.5 68.5t-49 52t-85.5 20.5z" />
<glyph unicode="&#xe53;" horiz-adv-x="1034" d="M45 358q0 190 67.5 279.5t174.5 89.5q61 0 104 -26.5t72 -57.5q33 -37 51 -84q18 47 51 84q27 31 70 57.5t104 26.5q109 0 179.5 -88t70.5 -281q0 -84 -15.5 -149.5t-31.5 -112.5q-20 -53 -45 -96h-90q25 39 47 92q18 47 33.5 113.5t15.5 152.5q0 57 -11 111.5 t-33.5 97.5t-56.5 69t-79 26q-29 0 -59.5 -19.5t-56 -59.5t-42 -98.5t-16.5 -134.5h-64q0 70 -16 127.5t-41 98t-55.5 63.5t-59.5 23q-74 0 -129 -78t-55 -226q0 -57 14.5 -113.5t42 -100.5t69.5 -71.5t97 -27.5q33 0 49 10q8 4 15 11v-72q-10 -4 -21 -6q-18 -6 -45 -6 q-63 0 -118.5 29.5t-97.5 80.5t-65.5 120t-23.5 146z" />
<glyph unicode="&#xe54;" horiz-adv-x="1003" d="M45 342q0 70 20.5 135.5t57.5 116.5t88 82t113 31h354q33 0 62.5 6t52 22.5t37 48t14.5 82.5v271h84l2 -232q0 -76 -17.5 -127t-50.5 -82.5t-79 -45t-99 -13.5h-369q-43 0 -77.5 -27.5t-58 -70.5t-37 -94.5t-13.5 -100.5q0 -47 10.5 -95t32 -87t53 -64.5t74.5 -25.5 l387 -4q-55 31 -98 73q-37 37 -66.5 93.5t-29.5 132.5h88q0 -66 27.5 -120t65.5 -95t80 -63.5t72 -22.5h103v-66h-609q-70 0 -122 28.5t-85.5 77t-50 109.5t-16.5 127z" />
<glyph unicode="&#xe55;" horiz-adv-x="1003" d="M45 344q0 70 20.5 135.5t57.5 115.5t88 81t115 31h114q-14 30 -14 71q0 63 44 107.5t108 44.5q63 0 107 -44t44 -108q0 -20 -4 -38.5t-10 -37.5q20 0 42.5 7.5t41 24t31 43t12.5 67.5v293h86v-240q0 -76 -15.5 -126t-44 -79.5t-67.5 -42t-86 -12.5h-398 q-43 0 -77.5 -27.5t-59 -70.5t-38 -94.5t-13.5 -100.5t10.5 -98t33 -89t56 -65.5t80.5 -25.5h375q-55 31 -98 75q-37 37 -67 93.5t-30 132.5h91q0 -66 25.5 -120t63.5 -95t82 -63.5t80 -22.5h97v-66h-609q-70 0 -122 27.5t-85.5 75t-50 109.5t-16.5 132zM516 784 q0 -27 17.5 -44t44.5 -17h6q23 4 39 20.5t16 40.5q0 25 -18.5 43.5t-42.5 18.5q-27 0 -44.5 -18.5t-17.5 -43.5z" />
<glyph unicode="&#xe56;" horiz-adv-x="1146" d="M14 1071v66h43q92 0 150.5 -55.5t99.5 -142.5t70 -193.5t61 -208.5q25 53 64 94q35 35 90 64.5t139 29.5q86 0 154.5 -25.5t117 -72.5t74 -111.5t25.5 -140.5q0 -84 -25.5 -157t-73 -125t-116 -81.5t-156.5 -29.5q-102 0 -191 55t-128 153h84q14 -35 41.5 -61.5 t60.5 -44.5t67.5 -28.5t65.5 -10.5q63 0 116.5 25.5t91.5 69.5t58.5 104.5t20.5 130.5q0 53 -18.5 104t-54.5 91t-90 64.5t-124 24.5q-55 0 -99 -18t-77 -50t-53.5 -73t-30.5 -86h-92q-47 168 -82 290t-73 198.5t-87 113.5t-123 37z" />
<glyph unicode="&#xe57;" horiz-adv-x="1351" d="M45 358q0 94 21.5 160t54.5 108t72.5 60.5t76.5 18.5q59 0 101.5 -24t70 -53.5t41 -56t15.5 -32.5q0 4 13 30.5t40 56t70 54.5t102 25q39 0 79 -17.5t72.5 -58.5t53 -107.5t20.5 -163.5q0 -86 -19.5 -166.5t-39.5 -130.5q25 2 55.5 12.5t58 33t47 61.5t19.5 100v615 q0 31 6 74.5t28.5 83.5t65.5 68t119 28h29v-66q-53 0 -86 -15.5t-50.5 -41t-22.5 -57t-5 -64.5v-617q0 -76 -22.5 -128t-58.5 -84.5t-80 -48t-89 -15.5h-133q25 39 47 92q16 47 31.5 113.5t15.5 152.5q0 57 -8 108.5t-27.5 89.5t-50.5 60.5t-76 22.5q-29 0 -61.5 -15.5 t-60 -47t-45 -77.5t-17.5 -108h-43q0 53 -17.5 99.5t-44 79t-58 51t-62.5 18.5q-74 0 -119 -66.5t-45 -214.5q0 -57 13.5 -113.5t42 -100.5t70.5 -71.5t101 -27.5q31 0 47 8q8 4 13 10v-69q-4 -4 -13 -6q-16 -6 -49 -6q-57 0 -112.5 25.5t-99.5 74.5t-70.5 118.5 t-26.5 157.5z" />
<glyph unicode="&#xe58;" horiz-adv-x="1003" d="M45 358q0 63 21.5 126t63.5 112t106.5 80t150.5 31h289q33 0 62.5 5t52 22.5t37 48t14.5 81.5v273h86v-248q0 -135 -65.5 -193.5t-174.5 -58.5h-313q-53 0 -97.5 -22.5t-78 -60.5t-52 -90t-18.5 -112q0 -57 10.5 -112.5t34 -98.5t59 -69.5t84.5 -26.5q37 0 64 16.5 t43 38.5q20 23 35 56q18 -33 49 -56q27 -23 66.5 -39t99.5 -16q25 0 54.5 7t55 24.5t42 47.5t16.5 75v53h86v-53q0 -66 -22.5 -108t-59.5 -66.5t-82 -33.5t-90 -9q-57 0 -97 13t-67 30q-31 18 -51 43q-14 -25 -37 -43q-20 -16 -50 -29.5t-77 -13.5q-41 0 -85 22.5t-81 68.5 t-60.5 117.5t-23.5 167.5z" />
<glyph unicode="&#xe59;" horiz-adv-x="1228" d="M45 358q0 94 27.5 164t69.5 115t93.5 67.5t98.5 22.5q66 0 106.5 -23.5t73.5 -52.5q59 135 172 135q43 0 78 -22.5t66.5 -50t62.5 -50t65 -22.5q53 0 82 69.5t29 176.5v250h84v-250q0 -63 -10 -119.5t-33 -99.5t-57.5 -68t-83.5 -25q-59 0 -98.5 21.5t-68 49.5t-55 50.5 t-59.5 26.5q-35 0 -61.5 -13.5t-44 -32t-25.5 -41t-8 -40.5q0 -14 2 -21l33 -112q8 -27 18 -64t24.5 -92t36 -130t50.5 -177h-76l-139 498q-6 20 -18.5 48.5t-33 55.5t-53.5 44.5t-78 17.5q-31 0 -63.5 -20.5t-60 -58.5t-45 -95.5t-17.5 -131.5q0 -55 11.5 -111.5t38 -101.5 t66.5 -72.5t99 -27.5q33 0 43 6q6 4 8 8v-67q8 4 -5 -3t-40 -7q-59 0 -114.5 25.5t-97.5 74.5t-67.5 118.5t-25.5 157.5z" />
<glyph unicode="&#xe5a;" horiz-adv-x="1003" d="M45 850h86q23 -86 64 -135t131 -49q94 0 168.5 47t97.5 137h88v-563q0 -145 -29.5 -216t-134.5 -71v66q20 0 34.5 5t25 26.5t15.5 63.5t5 118v491q-25 -49 -61 -86q-33 -33 -81 -59.5t-116 -26.5q-117 -2 -193.5 57.5t-99.5 194.5zM813 0v850h86v-850h-86z" />
<glyph unicode="&#xe5b;" horiz-adv-x="1423" d="M76 342q0 82 25.5 152.5t71.5 123t109.5 82t137.5 29.5q111 0 174 -38t96 -83q37 -53 49 -121h-82q-12 49 -43 86q-27 33 -72.5 61t-121.5 28q-59 0 -107.5 -28t-82 -72t-52 -101.5t-18.5 -118.5q0 -57 17.5 -110.5t52 -94.5t83.5 -65.5t115 -24.5q55 0 95 14.5t69 32.5 q33 20 55 47l107 -104l80 102l94 -102l82 100q20 -25 43 -45q20 -16 44.5 -30.5t53.5 -14.5q33 0 53.5 10.5t32.5 24.5t16 28.5t4 24.5q0 25 -5 42.5t-9 27.5q-6 12 -12 18h88q6 -8 14 -18q4 -10 9.5 -24.5t5.5 -37.5q0 -12 -3.5 -38.5t-18.5 -54t-49 -48t-95 -20.5 q-39 0 -71 13t-54 30q-27 18 -49 43l-84 -101l-95 101l-79 -101l-107 101q-25 -25 -57 -43q-29 -16 -68 -29.5t-90 -13.5q-72 0 -135.5 27.5t-111.5 76.5t-76.5 114.5t-28.5 141.5z" />
<glyph unicode="&#x2000;" horiz-adv-x="921" />
<glyph unicode="&#x2001;" horiz-adv-x="1843" />
<glyph unicode="&#x2002;" horiz-adv-x="921" />
<glyph unicode="&#x2003;" horiz-adv-x="1843" />
<glyph unicode="&#x2004;" horiz-adv-x="614" />
<glyph unicode="&#x2005;" horiz-adv-x="460" />
<glyph unicode="&#x2006;" horiz-adv-x="307" />
<glyph unicode="&#x2007;" horiz-adv-x="307" />
<glyph unicode="&#x2008;" horiz-adv-x="230" />
<glyph unicode="&#x2009;" horiz-adv-x="368" />
<glyph unicode="&#x200a;" horiz-adv-x="102" />
<glyph unicode="&#x2010;" horiz-adv-x="512" d="M76 389v72h360v-72h-360z" />
<glyph unicode="&#x2011;" horiz-adv-x="512" d="M76 389v72h360v-72h-360z" />
<glyph unicode="&#x2012;" horiz-adv-x="512" d="M76 389v72h360v-72h-360z" />
<glyph unicode="&#x2013;" horiz-adv-x="727" d="M76 389v72h575v-72h-575z" />
<glyph unicode="&#x2014;" horiz-adv-x="1116" d="M76 389v72h964v-72h-964z" />
<glyph unicode="&#x2018;" horiz-adv-x="235" d="M76 737v109q0 41 20.5 79t44.5 66q29 35 66 64h51q-27 -37 -49 -74q-18 -33 -33.5 -68.5t-15.5 -66.5v-109h-84z" />
<glyph unicode="&#x2019;" horiz-adv-x="235" d="M-18 737q25 37 47 74q16 33 31.5 68.5t15.5 68.5v107h84v-107q0 -41 -20.5 -80t-45.5 -67q-29 -35 -65 -64h-47z" />
<glyph unicode="&#x201c;" horiz-adv-x="460" d="M76 737v109q0 41 20.5 79t44.5 66q29 35 66 64h61q-31 -37 -53 -74q-20 -33 -35.5 -68.5t-15.5 -66.5v-109h-88zM270 737v109q0 41 19.5 79t42.5 66q27 35 61 64h62q-27 -37 -49 -74q-18 -33 -33 -68.5t-15 -66.5v-109h-88z" />
<glyph unicode="&#x201d;" horiz-adv-x="460" d="M-18 737q25 37 47 74q16 33 31.5 68.5t15.5 68.5v107h88v-107q0 -41 -19.5 -80t-42.5 -67q-27 -35 -61 -64h-59zM166 737q29 37 51 74q20 33 36.5 68.5t16.5 68.5v107h88v-107q0 -41 -20.5 -80t-44.5 -67q-29 -35 -66 -64h-61z" />
<glyph unicode="&#x2022;" horiz-adv-x="485" d="M76 430q0 72 50 121t120 49q37 0 67.5 -13.5t54 -37t37 -54t13.5 -65.5t-13.5 -66.5t-37 -55t-54 -37t-67.5 -13.5q-70 0 -120 50t-50 122z" />
<glyph unicode="&#x2026;" horiz-adv-x="1095" d="M76 0v92h84v-92h-84zM506 0v92h84v-92h-84zM936 0v92h84v-92h-84z" />
<glyph unicode="&#x202f;" horiz-adv-x="368" />
<glyph unicode="&#x205f;" horiz-adv-x="460" />
<glyph unicode="&#x20ac;" horiz-adv-x="993" d="M76 340v86h100l2 51v30.5t2 31.5h-104v84h114q14 80 55.5 148.5t102 118.5t140 77.5t174.5 27.5q55 0 128.5 -6t122.5 -28l-26 -68q-59 29 -108.5 32t-114.5 3q-147 0 -249 -82t-141 -223h418v-84h-428q-2 -16 -2 -30.5v-31.5v-26.5t2 -24.5h387v-86h-379 q29 -133 127.5 -213t264.5 -80q39 0 67.5 2t53 8t49 16.5t53.5 26.5l26 -69q-59 -35 -126.5 -42t-135.5 -7q-186 0 -304 95t-159 263h-112z" />
<glyph unicode="&#x2122;" horiz-adv-x="792" d="M76 956v29h233v-29h-96v-313h-37v313h-100zM362 643v342h50l123 -287l131 287h45v-342h-29v293l-135 -293h-21l-129 293v-293h-35z" />
<glyph unicode="&#x25fc;" horiz-adv-x="706" d="M0 0v707h707v-707h-707z" />
<glyph horiz-adv-x="808" d="M45 705q20 45 59 81q35 31 94.5 57.5t151.5 26.5q86 0 158 -26q20 6 50 16t56.5 25.5t45 35t18.5 48.5h86q0 -41 -17.5 -68t-44 -44t-58.5 -27.5t-60 -18.5q86 -59 133 -153.5t47 -211.5q0 -82 -20.5 -161.5t-63.5 -143t-109.5 -102.5t-158.5 -39h-107l-82 334 q-6 16 -17 16h-28h-37v66h76q23 0 35 -3t18 -8.5t8.5 -9.5t4.5 -4l96 -328q84 0 141.5 36t92 91.5t50 123t15.5 132.5q0 88 -27.5 156t-74 113t-104.5 67.5t-122 22.5q-74 0 -125 -27.5t-86 -62.5q-39 -39 -63 -90z" />
<glyph horiz-adv-x="1372" d="M45 662q31 57 78 104q41 39 104.5 71.5t157.5 32.5q61 0 129 -13t123 -45t91 -84t36 -128v-321q0 -35 7 -76t26.5 -76t54.5 -58.5t90 -23.5h86q55 0 91 23.5t56.5 58.5t28.5 76t8 76v571h84v-563q0 -59 -13 -114.5t-42 -97.5t-74 -67.5t-106 -25.5h-164q-70 0 -113 27.5 t-66.5 71.5t-31.5 98t-8 108v272q0 80 -30 128t-74 73.5t-97 35t-98 9.5q-59 0 -105.5 -22.5t-80.5 -49.5q-39 -33 -72 -71l123 -103q-8 -14 -17 -37q-6 -20 -10 -50t-4 -77l2 -291q0 -16 2 -27t19 -14h57v-63h-70q-45 0 -70.5 25.5t-25.5 103.5v266q0 39 6 69t14 52 q8 25 23 43q-37 29 -64 51q-23 18 -42 33.5t-19 18.5z" />
<glyph d="M-680 1130q0 53 21.5 83t50 44.5t56.5 17.5t40 3h123q47 0 73.5 6t43.5 14q18 8 26 23v-68q-8 -8 -26 -16q-16 -6 -43 -11t-74 -5h-103q-61 0 -85.5 -25t-24.5 -66q0 -18 7 -42.5t42 -24.5q23 0 36 9t19 20q8 12 9 30h38q4 -18 13 -30q6 -10 17 -19.5t32 -9.5 q41 0 54 21.5t13 37.5h78q0 -51 -36.5 -84.5t-88.5 -33.5q-23 0 -41 4t-32 8q-16 6 -29 12q-8 -6 -21 -12q-12 -4 -31.5 -8t-49.5 -4q-10 0 -27.5 6t-35 20t-31 39t-13.5 61z" />
<glyph d="M-389 1415v70h117q31 0 56.5 -27.5t25.5 -58.5q0 -16 12 -28.5t28 -12.5h162l-22 -68h-180q-47 0 -75 26.5t-28 57.5q0 27 -12 34t-25 7h-59z" />
<glyph d="M-471 1378q0 47 35 87t92 40q20 0 33.5 -6t21.5 -14q9 -9 15 -19q6 10 14 19q8 8 19.5 14t29.5 6q57 0 88 -31.5t29 -74.5q-2 -16 4 -18.5t16 -2.5l86 2l-22 -69h-78q-57 0 -69.5 25.5t-12.5 56.5q0 25 -17.5 36t-25.5 11q-23 0 -32 -19.5t-9 -42.5h-41q0 20 -12 41 t-29 21q-16 0 -33.5 -14.5t-17.5 -47.5q0 -18 5 -31.5t11 -21.5q8 -8 19 -14h-90q-8 6 -15 14q-14 18 -14 53z" />
<glyph horiz-adv-x="1413" d="M45 662q29 57 76 104q41 39 103.5 71.5t154.5 32.5q47 0 96 -7t95 -23.5t85 -42t66 -62.5q6 14 21.5 37t44 44.5t73.5 37.5t107 16q53 0 111.5 -16t107.5 -53t80.5 -96.5t31.5 -145.5v-878q0 -29 -11 -48.5t-23 -33.5q-14 -16 -33 -27h-17v967q0 133 -75.5 199.5 t-192.5 66.5q-72 0 -108.5 -28.5t-53 -63.5t-18.5 -66t-2 -35v-931q0 -29 -11.5 -48.5t-23.5 -33.5q-16 -16 -35 -27h-16v987q0 76 -28.5 124t-73 75.5t-96.5 37t-97 9.5q-61 0 -109.5 -22.5t-83.5 -49.5q-39 -33 -69 -71l123 -103q-8 -10 -17 -33q-6 -18 -10 -50t-4 -81 v-291q0 -41 25.5 -41h54.5v-63h-64q-55 0 -79.5 27.5t-24.5 101.5v266q0 39 6 69t16 52q8 25 23 43q-37 29 -64 51q-23 18 -42 33.5t-19 18.5z" />
<glyph horiz-adv-x="1413" d="M43 0v66h61q12 2 17.5 19t6.5 42t-1 51.5t-2 44.5v172q0 39 6 69t16 52q8 25 23 43q-37 29 -64 51q-23 18 -42 33.5t-19 18.5q31 57 78 104q41 39 102.5 71.5t151.5 32.5q100 0 195.5 -29.5t148.5 -101.5q6 12 22.5 35t46 44.5t72.5 36.5t105 15q53 0 111.5 -16 t107.5 -53t80.5 -96.5t31.5 -145.5v-878q0 -29 -11 -48.5t-23 -33.5q-14 -16 -33 -27h-17v967q0 133 -75.5 199.5t-192.5 66.5q-80 0 -119 -34t-53 -77t-12 -82t2 -47v-884q0 -29 -11.5 -48.5t-23.5 -33.5q-16 -16 -35 -27h-16v987q0 82 -31 130t-76 73.5t-99 34t-99 8.5 q-59 0 -105.5 -22.5t-79.5 -49.5q-37 -33 -67 -71l121 -103q-8 -14 -17 -37q-6 -20 -11 -50t-5 -77v-266q0 -78 -24.5 -103.5t-82.5 -25.5h-59z" />
</font>
</defs>
</svg>
